<svg xmlns="http://www.w3.org/2000/svg" viewBox="0 0 512 512">
  <path d="M297.2773 508.668zm0 0M302.3984 507.793c-1.0195.1875-2.039.3593-3.0586.5351 1.0196-.1758 2.0391-.3476 3.0586-.5351zm0 0M285.1367 510.3398c-2.496.2813-5.0078.5313-7.5273.7422 2.5195-.211 5.0312-.461 7.5273-.7422zm0 0M290.0547 509.7383c-1.1992.1601-2.4063.3086-3.6094.4492 1.2031-.1406 2.4102-.289 3.6094-.4492zm0 0M309.3672 506.4102c-.8985.1914-1.8008.3828-2.7031.5664.9023-.1836 1.8046-.375 2.703-.5664zm0 0M326.664 502.1133c-.7265.207-1.453.4023-2.1796.6054.7265-.203 1.4531-.3984 2.1797-.6054zm0 0M321.4336 503.543c-.789.207-1.582.418-2.375.6172.793-.1993 1.586-.4063 2.375-.6172zm0 0M314.5898 505.254c-.8359.1952-1.6796.3788-2.5234.5663.8438-.1875 1.6875-.371 2.5234-.5664zm0 0M277.5273 511.0898zm0 0M512 256C512 114.6367 397.3633 0 256 0S0 114.6367 0 256s114.6367 256 256 256c1.504 0 3-.0313 4.5-.0586V312.6562h-55v-64.0976h55v-47.168c0-54.7031 33.3945-84.4765 82.1914-84.4765 23.3672 0 43.4531 1.7421 49.3086 2.5195v57.1719h-33.6484c-26.547 0-31.6875 12.6172-31.6875 31.1289v40.8242h63.4765l-8.2734 64.0976H326.664v189.4532C433.668 471.4336 512 372.8516 512 256zm0 0M272.914 511.4297c-2.664.1719-5.3398.3086-8.0234.3984 2.6836-.0898 5.3594-.2265 8.0235-.3984zm0 0M264.754 511.836zm0 0"/>
</svg>
