<svg xmlns="http://www.w3.org/2000/svg" viewBox="0 0 512 512">
  <path d="M256 0C114.6367 0 0 114.6367 0 256s114.6367 256 256 256 256-114.6367 256-256S397.3633 0 256 0zm-74.3906 387h-62.3477V199.4258h62.3477zm-31.1719-213.1875h-.4063c-20.9218 0-34.453-14.4023-34.453-32.4023 0-18.4063 13.9452-32.4102 35.2734-32.4102 21.328 0 34.453 14.004 34.8593 32.4102 0 18-13.5312 32.4023-35.2734 32.4023zM406.4219 387H344.082V286.6523c0-25.2187-9.0273-42.418-31.586-42.418-17.2226 0-27.4804 11.6016-31.9882 22.8009-1.6484 4.0078-2.0508 9.6093-2.0508 15.2148V387h-62.3437s.8164-169.9766 0-187.5742h62.3437v26.5586c8.2852-12.7813 23.1094-30.961 56.1875-30.961 41.0196 0 71.7774 26.8086 71.7774 84.422zm0 0"/>
</svg>
