<svg xmlns="http://www.w3.org/2000/svg" viewBox="0 0 512 512">
  <path d="M224.1133 303.961L307.3867 256l-83.2734-47.961zm0 0"/>
  <path d="M256 0C114.6367 0 0 114.6367 0 256s114.6367 256 256 256 256-114.6367 256-256S397.3633 0 256 0zm159.961 256.2617s0 51.918-6.586 76.9531c-3.6914 13.7032-14.496 24.5079-28.1992 28.1954C356.1406 368 256 368 256 368s-99.879 0-125.1758-6.8516c-13.7031-3.6875-24.5078-14.496-28.1992-28.1992C96.0352 308.1797 96.0352 256 96.0352 256s0-51.914 6.5898-76.9492c3.6875-13.7031 14.7578-24.7735 28.1992-28.461C155.8594 144 256 144 256 144s100.1406 0 125.1758 6.8516c13.7031 3.6875 24.5078 14.496 28.1992 28.1992 6.8516 25.0351 6.586 77.211 6.586 77.211zm0 0"/>
</svg>
