<?xml version="1.0" encoding="utf-8"?>
<!-- Generator: Adobe Illustrator 24.0.0, SVG Export Plug-In . SVG Version: 6.00 Build 0)  -->
<svg version="1.1" id="Warstwa_1" xmlns="http://www.w3.org/2000/svg" xmlns:xlink="http://www.w3.org/1999/xlink" x="0px" y="0px"
	 viewBox="0 0 327.7 437.3" style="enable-background:new 0 0 327.7 437.3;" xml:space="preserve">
<style type="text/css">
	.Łukowy_x0020_zielony{fill:url(#SVGID_1_);stroke:#FFFFFF;stroke-width:0.25;stroke-miterlimit:1;}
	.st0{fill:#FFFFFF;}
	.st1{fill:#DEDFDC;}
	.st2{fill:#B9B9B6;}
	.st3{fill:#E7E7E5;}
	.st4{fill:#FAF9F9;}
	.st5{fill:#ACACA9;}
	.st6{fill:#F0EFED;}
	.st7{fill:#BEBEBC;}
	.st8{fill:#FDFDFC;}
	.st9{fill:#CFCFCC;}
	.st10{fill:#C7C6C3;}
	.st11{fill:#DDDDDA;}
	.st12{fill:#D8D8D6;}
	.st13{fill:#C0BFBC;}
	.st14{fill:#B7B7B4;}
	.st15{fill:#D2D3D0;}
	.st16{fill:#F1F1EF;}
	.st17{fill:#EBEAE8;}
	.st18{fill:#BDBDBA;}
	.st19{fill:#F6F6F5;}
	.st20{fill:#EAEAE8;}
	.st21{fill:#B5B4B1;}
	.st22{fill:#DADAD7;}
	.st23{fill:#F2F2F0;}
	.st24{fill:#D6D6D3;}
	.st25{fill:#E2E2E0;}
	.st26{fill:#E9E9E6;}
	.st27{fill:#B8B8B6;}
	.st28{fill:#E2E1DF;}
	.st29{fill:#FCFBFB;}
	.st30{fill:#D1D1CF;}
	.st31{fill:#B2B2AF;}
	.st32{fill:#ADADAA;}
	.st33{fill:#D0D0CD;}
	.st34{fill:#E1E0DE;}
	.st35{fill:#CDCCC9;}
	.st36{fill:#C4C4C2;}
	.st37{fill:#D3D3D1;}
	.st38{fill:#BCBCB9;}
	.st39{fill:#EFEEEC;}
	.st40{fill:#F3F3F1;}
	.st41{fill:#FBFAFA;}
	.st42{fill:#B0B0AD;}
	.st43{fill:#C7C7C4;}
	.st44{fill:#ECECEB;}
	.st45{fill:#CDCDCA;}
	.st46{fill:#CECECB;}
	.st47{fill:#AFB0AC;}
	.st48{fill:#F9F9F8;}
	.st49{fill:#CBCAC8;}
	.st50{fill:#E5E5E3;}
	.st51{fill:#D5D5D2;}
	.st52{fill:#E8E8E5;}
	.st53{fill:#D7D7D4;}
	.st54{fill:#DFDFDD;}
	.st55{fill:#C6C6C3;}
	.st56{fill:#C2C2BF;}
	.st57{fill:#ECEBE9;}
	.st58{fill:#BBBBB8;}
	.st59{fill:#E4E4E2;}
	.st60{fill:#AEAEAC;}
	.st61{fill:#F4F3F2;}
	.st62{fill:#CCCCC9;}
	.st63{fill:#F5F5F4;}
	.st64{fill:#CAC9C7;}
	.st65{fill:#C9C9C6;}
	.st66{fill:#B1B1AF;}
	.st67{fill:#F1F0EE;}
	.st68{fill:#DCDCDA;}
	.st69{fill:#B7B7B3;}
	.st70{fill:#B4B4B1;}
	.st71{fill:#B6B6B2;}
	.st72{fill:#F8F7F6;}
	.st73{fill:#FEFEFE;}
	.st74{fill:#E3E3E1;}
	.st75{fill:#DBDBD9;}
	.st76{fill:#C3C3C1;}
	.st77{fill:#BDBDBB;}
	.st78{fill:#D8D9D6;}
	.st79{fill:#C1C1BE;}
	.st80{fill:#BABAB7;}
	.st81{fill:#EEEDEB;}
	.st82{fill:none;}
</style>
<linearGradient id="SVGID_1_" gradientUnits="userSpaceOnUse" x1="0" y1="550" x2="0.7071" y2="549.2929">
	<stop  offset="0" style="stop-color:#1EAB4B"/>
	<stop  offset="0.9831" style="stop-color:#19361A"/>
</linearGradient>
<rect x="9.8" y="196.3" transform="matrix(0.7072 -0.707 0.707 0.7072 -136.4113 65.6414)" class="st8" width="2.4" height="2.4"/>
<rect x="9.6" y="213.9" transform="matrix(0.7071 -0.7071 0.7071 0.7071 -149.0609 70.8936)" class="st9" width="2.9" height="2.9"/>
<rect x="9.4" y="231.6" transform="matrix(0.7071 -0.7071 0.7071 0.7071 -161.6954 76.128)" class="st10" width="3.4" height="3.4"/>
<rect x="9.1" y="249.2" transform="matrix(0.7072 -0.707 0.707 0.7072 -174.2987 81.3282)" class="st0" width="3.8" height="3.8"/>
<rect x="8.9" y="266.8" transform="matrix(0.7069 -0.7073 0.7073 0.7069 -187.0031 86.6387)" class="st11" width="4.3" height="4.3"/>
<rect x="8.6" y="284.4" transform="matrix(0.7072 -0.707 0.707 0.7072 -199.5781 91.809)" class="st12" width="4.8" height="4.8"/>
<rect x="8.4" y="302.1" transform="matrix(0.7072 -0.707 0.707 0.7072 -212.1879 97.0166)" class="st0" width="5.3" height="5.3"/>
<rect x="8.2" y="319.7" transform="matrix(0.707 -0.7072 0.7072 0.707 -224.8981 102.3326)" class="st13" width="5.8" height="5.8"/>
<rect x="7.9" y="337.3" transform="matrix(0.7072 -0.707 0.707 0.7072 -237.4655 107.4956)" class="st14" width="6.2" height="6.2"/>
<rect x="7.7" y="354.9" transform="matrix(0.7071 -0.7071 0.7071 0.7071 -250.1257 112.7571)" class="st0" width="6.7" height="6.7"/>
<rect x="7.4" y="372.6" transform="matrix(0.7071 -0.7071 0.7071 0.7071 -262.757 117.9886)" class="st0" width="7.2" height="7.2"/>
<rect x="7.2" y="390.2" transform="matrix(0.7072 -0.707 0.707 0.7072 -275.3664 123.196)" class="st0" width="7.7" height="7.7"/>
<rect x="7" y="407.8" transform="matrix(0.7072 -0.707 0.707 0.7072 -287.9879 128.4177)" class="st0" width="8.2" height="8.2"/>
<rect x="6.7" y="425.4" transform="matrix(0.7073 -0.707 0.707 0.7073 -300.596 133.6237)" class="st15" width="8.6" height="8.6"/>
<rect x="27.7" y="196.3" transform="matrix(0.7072 -0.707 0.707 0.7072 -131.1802 78.2718)" class="st16" width="2.4" height="2.4"/>
<rect x="27.5" y="213.9" transform="matrix(0.7071 -0.7071 0.7071 0.7071 -143.8301 83.5281)" class="st17" width="2.9" height="2.9"/>
<rect x="27.2" y="231.6" transform="matrix(0.7071 -0.7071 0.7071 0.7071 -156.4628 88.7606)" class="st18" width="3.4" height="3.4"/>
<rect x="27" y="249.2" transform="matrix(0.7071 -0.7071 0.7071 0.7071 -169.0987 93.9969)" class="st19" width="3.8" height="3.8"/>
<rect x="26.8" y="266.8" transform="matrix(0.7069 -0.7073 0.7073 0.7069 -181.7675 99.2746)" class="st9" width="4.3" height="4.3"/>
<rect x="26.5" y="284.4" transform="matrix(0.7072 -0.7071 0.7071 0.7072 -194.3482 104.4426)" class="st20" width="4.8" height="4.8"/>
<rect x="26.3" y="302.1" transform="matrix(0.7072 -0.707 0.707 0.7072 -206.9579 109.6471)" class="st15" width="5.3" height="5.3"/>
<rect x="26" y="319.7" transform="matrix(0.707 -0.7072 0.7072 0.707 -219.6651 114.9696)" class="st7" width="5.8" height="5.8"/>
<rect x="25.8" y="337.3" transform="matrix(0.7072 -0.707 0.707 0.7072 -232.2345 120.1274)" class="st21" width="6.2" height="6.2"/>
<rect x="25.6" y="354.9" transform="matrix(0.7071 -0.7071 0.7071 0.7071 -244.8947 125.3921)" class="st0" width="6.7" height="6.7"/>
<rect x="25.3" y="372.6" transform="matrix(0.7071 -0.7071 0.7071 0.7071 -257.5248 130.6219)" class="st0" width="7.2" height="7.2"/>
<rect x="25.1" y="390.2" transform="matrix(0.7072 -0.707 0.707 0.7072 -270.1249 135.8161)" class="st22" width="7.7" height="7.7"/>
<rect x="24.8" y="407.8" transform="matrix(0.7072 -0.707 0.707 0.7072 -282.7575 141.0496)" class="st23" width="8.2" height="8.2"/>
<rect x="24.6" y="425.4" transform="matrix(0.7073 -0.707 0.707 0.7073 -295.3654 146.2537)" class="st5" width="8.6" height="8.6"/>
<rect x="45.6" y="196.3" transform="matrix(0.7072 -0.707 0.707 0.7072 -125.9525 90.9078)" class="st24" width="2.4" height="2.4"/>
<rect x="45.3" y="213.9" transform="matrix(0.7071 -0.7071 0.7071 0.7071 -138.5974 96.1608)" class="st16" width="2.9" height="2.9"/>
<rect x="45.1" y="231.6" transform="matrix(0.7071 -0.7071 0.7071 0.7071 -151.233 101.3974)" class="st25" width="3.4" height="3.4"/>
<rect x="44.9" y="249.2" transform="matrix(0.7072 -0.707 0.707 0.7072 -163.8391 106.5913)" class="st0" width="3.8" height="3.8"/>
<rect x="44.6" y="266.8" transform="matrix(0.7069 -0.7073 0.7073 0.7069 -176.5346 111.9138)" class="st26" width="4.3" height="4.3"/>
<rect x="44.4" y="284.4" transform="matrix(0.7072 -0.7071 0.7071 0.7072 -189.1164 117.0746)" class="st27" width="4.8" height="4.8"/>
<rect x="44.1" y="302.1" transform="matrix(0.7072 -0.707 0.707 0.7072 -201.7301 122.2807)" class="st28" width="5.3" height="5.3"/>
<rect x="43.9" y="319.7" transform="matrix(0.7071 -0.7072 0.7072 0.7071 -214.406 127.573)" class="st29" width="5.8" height="5.8"/>
<rect x="43.7" y="337.3" transform="matrix(0.7072 -0.707 0.707 0.7072 -227.0033 132.7586)" class="st30" width="6.2" height="6.2"/>
<rect x="43.4" y="354.9" transform="matrix(0.7071 -0.7071 0.7071 0.7071 -239.6619 138.0249)" class="st31" width="6.7" height="6.7"/>
<rect x="43.2" y="372.6" transform="matrix(0.7071 -0.7071 0.7071 0.7071 -252.2921 143.2547)" class="st32" width="7.2" height="7.2"/>
<rect x="42.9" y="390.2" transform="matrix(0.7072 -0.707 0.707 0.7072 -264.8938 148.4474)" class="st30" width="7.7" height="7.7"/>
<rect x="42.7" y="407.8" transform="matrix(0.7072 -0.707 0.707 0.7072 -277.5263 153.681)" class="st0" width="8.2" height="8.2"/>
<rect x="42.5" y="425.4" transform="matrix(0.7072 -0.707 0.707 0.7072 -290.1376 158.8864)" class="st0" width="8.6" height="8.6"/>
<rect x="63.4" y="196.3" transform="matrix(0.7072 -0.707 0.707 0.7072 -120.7185 103.5336)" class="st33" width="2.4" height="2.4"/>
<rect x="63.2" y="213.9" transform="matrix(0.7071 -0.7071 0.7071 0.7071 -133.3621 108.7889)" class="st34" width="2.9" height="2.9"/>
<rect x="63" y="231.6" transform="matrix(0.7071 -0.7071 0.7071 0.7071 -145.9974 114.0262)" class="st35" width="3.4" height="3.4"/>
<rect x="62.7" y="249.2" transform="matrix(0.7072 -0.707 0.707 0.7072 -158.6061 119.2177)" class="st8" width="3.8" height="3.8"/>
<rect x="62.5" y="266.8" transform="matrix(0.7069 -0.7073 0.7073 0.7069 -171.2965 124.5457)" class="st0" width="4.3" height="4.3"/>
<rect x="62.2" y="284.4" transform="matrix(0.7072 -0.707 0.707 0.7072 -183.8824 129.7026)" class="st6" width="4.8" height="4.8"/>
<rect x="62" y="302.1" transform="matrix(0.7072 -0.707 0.707 0.7072 -196.4973 134.908)" class="st0" width="5.3" height="5.3"/>
<rect x="61.8" y="319.7" transform="matrix(0.707 -0.7072 0.7072 0.707 -209.1928 140.2365)" class="st0" width="5.8" height="5.8"/>
<rect x="61.5" y="337.3" transform="matrix(0.7072 -0.707 0.707 0.7072 -221.772 145.3899)" class="st36" width="6.2" height="6.2"/>
<rect x="61.3" y="354.9" transform="matrix(0.7071 -0.7071 0.7071 0.7071 -234.4268 150.6549)" class="st0" width="6.7" height="6.7"/>
<rect x="61" y="372.6" transform="matrix(0.7071 -0.7071 0.7071 0.7071 -247.0594 155.8876)" class="st0" width="7.2" height="7.2"/>
<rect x="60.8" y="390.2" transform="matrix(0.7072 -0.707 0.707 0.7072 -259.6606 161.0755)" class="st37" width="7.7" height="7.7"/>
<rect x="60.6" y="407.8" transform="matrix(0.7072 -0.707 0.707 0.7072 -272.2952 166.3121)" class="st0" width="8.2" height="8.2"/>
<rect x="60.3" y="425.4" transform="matrix(0.7073 -0.707 0.707 0.7073 -284.9052 171.5141)" class="st38" width="8.6" height="8.6"/>
<rect x="81.3" y="196.3" transform="matrix(0.7072 -0.707 0.707 0.7072 -115.4878 116.1644)" class="st9" width="2.4" height="2.4"/>
<rect x="81.1" y="213.9" transform="matrix(0.7071 -0.7071 0.7071 0.7071 -128.1321 121.4265)" class="st39" width="2.9" height="2.9"/>
<rect x="80.8" y="231.6" transform="matrix(0.7071 -0.7071 0.7071 0.7071 -140.7648 126.6588)" class="st7" width="3.4" height="3.4"/>
<rect x="80.6" y="249.2" transform="matrix(0.7071 -0.7071 0.7071 0.7071 -153.4 131.8958)" class="st0" width="3.8" height="3.8"/>
<rect x="80.3" y="266.8" transform="matrix(0.7069 -0.7073 0.7073 0.7069 -166.0609 137.1815)" class="st0" width="4.3" height="4.3"/>
<rect x="80.1" y="284.4" transform="matrix(0.7071 -0.7072 0.7072 0.7071 -178.6743 142.3765)" class="st0" width="4.8" height="4.8"/>
<rect x="79.9" y="302.1" transform="matrix(0.7072 -0.707 0.707 0.7072 -191.2671 147.5382)" class="st1" width="5.3" height="5.3"/>
<rect x="79.6" y="319.7" transform="matrix(0.707 -0.7072 0.7072 0.707 -203.9496 152.8574)" class="st29" width="5.8" height="5.8"/>
<rect x="79.4" y="337.3" transform="matrix(0.7072 -0.707 0.707 0.7072 -216.5408 158.0213)" class="st39" width="6.2" height="6.2"/>
<rect x="79.1" y="354.9" transform="matrix(0.7071 -0.7071 0.7071 0.7071 -229.1942 163.2875)" class="st40" width="6.7" height="6.7"/>
<rect x="78.9" y="372.6" transform="matrix(0.707 -0.7072 0.7072 0.707 -241.8473 168.5518)" class="st34" width="7.2" height="7.2"/>
<rect x="78.7" y="390.2" transform="matrix(0.7072 -0.707 0.707 0.7072 -254.4298 173.7063)" class="st41" width="7.7" height="7.7"/>
<rect x="78.4" y="407.8" transform="matrix(0.7072 -0.707 0.707 0.7072 -267.0641 178.9432)" class="st0" width="8.2" height="8.2"/>
<rect x="78.2" y="425.4" transform="matrix(0.7073 -0.707 0.707 0.7073 -279.6751 184.1441)" class="st42" width="8.6" height="8.6"/>
<rect x="99.2" y="196.3" transform="matrix(0.7072 -0.707 0.707 0.7072 -110.259 128.8019)" class="st41" width="2.4" height="2.4"/>
<rect x="98.9" y="213.9" transform="matrix(0.7071 -0.7071 0.7071 0.7071 -122.8994 134.0595)" class="st0" width="2.9" height="2.9"/>
<rect x="98.7" y="231.6" transform="matrix(0.7071 -0.7071 0.7071 0.7071 -135.5343 139.2965)" class="st43" width="3.4" height="3.4"/>
<rect x="98.5" y="249.2" transform="matrix(0.7071 -0.7071 0.7071 0.7071 -148.1671 144.5291)" class="st0" width="3.8" height="3.8"/>
<rect x="98.2" y="266.8" transform="matrix(0.7069 -0.7073 0.7073 0.7069 -160.8254 149.817)" class="st0" width="4.3" height="4.3"/>
<rect x="98" y="284.4" transform="matrix(0.7072 -0.7071 0.7071 0.7072 -173.4212 154.9701)" class="st44" width="4.8" height="4.8"/>
<rect x="97.7" y="302.1" transform="matrix(0.7072 -0.707 0.707 0.7072 -186.0367 160.1688)" class="st0" width="5.3" height="5.3"/>
<rect x="97.5" y="319.7" transform="matrix(0.7071 -0.7071 0.7071 0.7071 -198.696 165.4555)" class="st14" width="5.8" height="5.8"/>
<rect x="97.3" y="337.3" transform="matrix(0.7072 -0.707 0.707 0.7072 -211.3096 170.6527)" class="st0" width="6.2" height="6.2"/>
<rect x="97" y="354.9" transform="matrix(0.7071 -0.7071 0.7071 0.7071 -223.9636 175.9236)" class="st45" width="6.7" height="6.7"/>
<rect x="96.8" y="372.6" transform="matrix(0.7071 -0.7071 0.7071 0.7071 -236.5942 181.153)" class="st46" width="7.2" height="7.2"/>
<rect x="96.5" y="390.2" transform="matrix(0.7072 -0.707 0.707 0.7072 -249.2007 186.3408)" class="st47" width="7.7" height="7.7"/>
<rect x="96.3" y="407.8" transform="matrix(0.7072 -0.707 0.707 0.7072 -261.833 191.5745)" class="st48" width="8.2" height="8.2"/>
<rect x="96.1" y="425.4" transform="matrix(0.7072 -0.707 0.707 0.7072 -274.4469 196.7775)" class="st0" width="8.6" height="8.6"/>
<rect x="117" y="196.3" transform="matrix(0.7072 -0.707 0.707 0.7072 -105.0262 141.4265)" class="st49" width="2.4" height="2.4"/>
<rect x="116.8" y="213.9" transform="matrix(0.7071 -0.7071 0.7071 0.7071 -117.6668 146.6919)" class="st0" width="2.9" height="2.9"/>
<rect x="116.6" y="231.6" transform="matrix(0.7071 -0.7071 0.7071 0.7071 -130.2995 151.9244)" class="st21" width="3.4" height="3.4"/>
<rect x="116.3" y="249.2" transform="matrix(0.7071 -0.7071 0.7071 0.7071 -142.9325 157.157)" class="st0" width="3.8" height="3.8"/>
<rect x="116.1" y="266.8" transform="matrix(0.7069 -0.7073 0.7073 0.7069 -155.5915 162.4574)" class="st0" width="4.3" height="4.3"/>
<rect x="115.8" y="284.4" transform="matrix(0.7072 -0.7071 0.7071 0.7072 -168.1895 167.6017)" class="st3" width="4.8" height="4.8"/>
<rect x="115.6" y="302.1" transform="matrix(0.7072 -0.707 0.707 0.7072 -180.8065 172.7991)" class="st50" width="5.3" height="5.3"/>
<rect x="115.4" y="319.7" transform="matrix(0.707 -0.7072 0.7072 0.707 -193.4883 178.1416)" class="st0" width="5.8" height="5.8"/>
<rect x="115.1" y="337.3" transform="matrix(0.7072 -0.707 0.707 0.7072 -206.0802 183.2876)" class="st16" width="6.2" height="6.2"/>
<rect x="114.9" y="354.9" transform="matrix(0.7071 -0.7071 0.7071 0.7071 -218.7289 188.5531)" class="st51" width="6.7" height="6.7"/>
<rect x="114.6" y="372.6" transform="matrix(0.7071 -0.7071 0.7071 0.7071 -231.3615 193.7858)" class="st0" width="7.2" height="7.2"/>
<rect x="114.4" y="390.2" transform="matrix(0.7072 -0.707 0.707 0.7072 -243.9679 198.9685)" class="st19" width="7.7" height="7.7"/>
<rect x="114.2" y="407.8" transform="matrix(0.7072 -0.707 0.707 0.7072 -256.6036 204.2092)" class="st52" width="8.2" height="8.2"/>
<rect x="113.9" y="425.4" transform="matrix(0.7073 -0.707 0.707 0.7073 -269.215 209.4045)" class="st0" width="8.6" height="8.6"/>
<rect x="134.9" y="196.3" transform="matrix(0.7072 -0.707 0.707 0.7072 -99.7953 154.0572)" class="st1" width="2.4" height="2.4"/>
<rect x="134.7" y="213.9" transform="matrix(0.7071 -0.7071 0.7071 0.7071 -112.434 159.3246)" class="st8" width="2.9" height="2.9"/>
<rect x="134.4" y="231.6" transform="matrix(0.7071 -0.7071 0.7071 0.7071 -125.0669 164.5571)" class="st0" width="3.4" height="3.4"/>
<rect x="134.2" y="249.2" transform="matrix(0.7072 -0.707 0.707 0.7072 -137.6862 169.7445)" class="st26" width="3.8" height="3.8"/>
<rect x="133.9" y="266.8" transform="matrix(0.7069 -0.7073 0.7073 0.7069 -150.3542 175.0883)" class="st12" width="4.3" height="4.3"/>
<rect x="133.7" y="284.4" transform="matrix(0.7072 -0.707 0.707 0.7072 -162.9561 180.2294)" class="st36" width="4.8" height="4.8"/>
<rect x="133.5" y="302.1" transform="matrix(0.7072 -0.707 0.707 0.7072 -175.5763 185.4293)" class="st23" width="5.3" height="5.3"/>
<rect x="133.2" y="319.7" transform="matrix(0.7071 -0.7071 0.7071 0.7071 -188.2306 190.721)" class="st53" width="5.8" height="5.8"/>
<rect x="133" y="337.3" transform="matrix(0.7072 -0.707 0.707 0.7072 -200.8471 195.9154)" class="st54" width="6.2" height="6.2"/>
<rect x="132.7" y="354.9" transform="matrix(0.7071 -0.7071 0.7071 0.7071 -213.4963 201.1857)" class="st0" width="6.7" height="6.7"/>
<rect x="132.5" y="372.6" transform="matrix(0.7071 -0.7071 0.7071 0.7071 -226.1287 206.4185)" class="st36" width="7.2" height="7.2"/>
<rect x="132.3" y="390.2" transform="matrix(0.7072 -0.707 0.707 0.7072 -238.7368 211.5996)" class="st55" width="7.7" height="7.7"/>
<rect x="132" y="407.8" transform="matrix(0.7072 -0.707 0.707 0.7072 -251.3707 216.837)" class="st37" width="8.2" height="8.2"/>
<rect x="131.8" y="425.4" transform="matrix(0.7073 -0.707 0.707 0.7073 -263.9847 222.0349)" class="st56" width="8.6" height="8.6"/>
<rect x="152.8" y="196.3" transform="matrix(0.7073 -0.7069 0.7069 0.7073 -94.5599 166.6517)" class="st5" width="2.4" height="2.4"/>
<rect x="152.5" y="213.9" transform="matrix(0.7071 -0.7071 0.7071 0.7071 -107.2014 171.9575)" class="st57" width="2.9" height="2.9"/>
<rect x="152.3" y="231.6" transform="matrix(0.7071 -0.7071 0.7071 0.7071 -119.8354 177.1956)" class="st0" width="3.4" height="3.4"/>
<rect x="152.1" y="249.2" transform="matrix(0.7071 -0.7071 0.7071 0.7071 -132.4684 182.4279)" class="st46" width="3.8" height="3.8"/>
<rect x="151.8" y="266.8" transform="matrix(0.7069 -0.7073 0.7073 0.7069 -145.1254 187.7483)" class="st0" width="4.3" height="4.3"/>
<rect x="151.6" y="284.4" transform="matrix(0.7072 -0.7071 0.7071 0.7072 -157.726 192.8655)" class="st48" width="4.8" height="4.8"/>
<rect x="151.3" y="302.1" transform="matrix(0.7072 -0.707 0.707 0.7072 -170.346 198.0598)" class="st22" width="5.3" height="5.3"/>
<rect x="151.1" y="319.7" transform="matrix(0.707 -0.7072 0.7072 0.707 -183.0127 203.3951)" class="st18" width="5.8" height="5.8"/>
<rect x="150.9" y="337.3" transform="matrix(0.7072 -0.707 0.707 0.7072 -195.6159 208.5465)" class="st58" width="6.2" height="6.2"/>
<rect x="150.6" y="354.9" transform="matrix(0.7071 -0.7071 0.7071 0.7071 -208.2651 213.8225)" class="st32" width="6.7" height="6.7"/>
<rect x="150.4" y="372.6" transform="matrix(0.7071 -0.7071 0.7071 0.7071 -220.8961 219.0515)" class="st0" width="7.2" height="7.2"/>
<rect x="150.1" y="390.2" transform="matrix(0.7072 -0.707 0.707 0.7072 -233.5076 224.2341)" class="st0" width="7.7" height="7.7"/>
<rect x="149.9" y="407.8" transform="matrix(0.7072 -0.707 0.707 0.7072 -246.1396 229.4683)" class="st59" width="8.2" height="8.2"/>
<rect x="149.7" y="425.4" transform="matrix(0.7072 -0.707 0.707 0.7072 -258.7564 234.6684)" class="st0" width="8.6" height="8.6"/>
<rect x="170.6" y="196.3" transform="matrix(0.7073 -0.7069 0.7069 0.7073 -89.3316 179.2882)" class="st37" width="2.4" height="2.4"/>
<rect x="170.4" y="213.9" transform="matrix(0.7071 -0.7071 0.7071 0.7071 -101.9689 184.59)" class="st26" width="2.9" height="2.9"/>
<rect x="170.2" y="231.6" transform="matrix(0.7071 -0.7071 0.7071 0.7071 -114.6024 189.8287)" class="st4" width="3.4" height="3.4"/>
<rect x="169.9" y="249.2" transform="matrix(0.7071 -0.7071 0.7071 0.7071 -127.2354 195.0611)" class="st0" width="3.8" height="3.8"/>
<rect x="169.7" y="266.8" transform="matrix(0.7069 -0.7073 0.7073 0.7069 -139.8899 200.3901)" class="st0" width="4.3" height="4.3"/>
<rect x="169.4" y="284.4" transform="matrix(0.7071 -0.7071 0.7071 0.7071 -152.5004 205.5209)" class="st9" width="4.8" height="4.8"/>
<rect x="169.2" y="302.1" transform="matrix(0.7073 -0.7069 0.7069 0.7073 -165.1107 210.6721)" class="st34" width="5.3" height="5.3"/>
<rect x="169" y="319.7" transform="matrix(0.707 -0.7072 0.7072 0.707 -177.7784 216.0293)" class="st50" width="5.8" height="5.8"/>
<rect x="168.7" y="337.3" transform="matrix(0.7071 -0.7071 0.7071 0.7071 -190.3983 221.2187)" class="st60" width="6.2" height="6.2"/>
<rect x="168.5" y="354.9" transform="matrix(0.7071 -0.7071 0.7071 0.7071 -203.0323 226.4552)" class="st31" width="6.7" height="6.7"/>
<rect x="168.2" y="372.6" transform="matrix(0.7071 -0.7071 0.7071 0.7071 -215.665 231.6877)" class="st36" width="7.2" height="7.2"/>
<rect x="168" y="390.2" transform="matrix(0.7072 -0.707 0.707 0.7072 -228.2694 236.8466)" class="st19" width="7.7" height="7.7"/>
<rect x="167.8" y="407.8" transform="matrix(0.7072 -0.7071 0.7071 0.7072 -240.9159 242.1172)" class="st0" width="8.2" height="8.2"/>
<rect x="167.5" y="425.4" transform="matrix(0.7072 -0.707 0.707 0.7072 -253.5337 247.316)" class="st61" width="8.6" height="8.6"/>
<rect x="188.5" y="196.3" transform="matrix(0.7073 -0.7069 0.7069 0.7073 -84.1021 191.9095)" class="st62" width="2.4" height="2.4"/>
<rect x="188.3" y="213.9" transform="matrix(0.7071 -0.7071 0.7071 0.7071 -96.736 197.2233)" class="st31" width="2.9" height="2.9"/>
<rect x="188" y="231.6" transform="matrix(0.7071 -0.7071 0.7071 0.7071 -109.3689 202.4552)" class="st20" width="3.4" height="3.4"/>
<rect x="187.8" y="249.2" transform="matrix(0.7071 -0.7071 0.7071 0.7071 -122.0017 207.6884)" class="st10" width="3.8" height="3.8"/>
<rect x="187.5" y="266.8" transform="matrix(0.7069 -0.7073 0.7073 0.7069 -134.6523 213.022)" class="st0" width="4.3" height="4.3"/>
<rect x="187.3" y="284.4" transform="matrix(0.7072 -0.707 0.707 0.7072 -147.2575 218.1043)" class="st2" width="4.8" height="4.8"/>
<rect x="187.1" y="302.1" transform="matrix(0.7072 -0.707 0.707 0.7072 -159.8908 223.3441)" class="st0" width="5.3" height="5.3"/>
<rect x="186.8" y="319.7" transform="matrix(0.7071 -0.7071 0.7071 0.7071 -172.5314 228.615)" class="st2" width="5.8" height="5.8"/>
<rect x="186.6" y="337.3" transform="matrix(0.7072 -0.707 0.707 0.7072 -185.1534 233.8093)" class="st0" width="6.2" height="6.2"/>
<rect x="186.3" y="354.9" transform="matrix(0.7071 -0.7071 0.7071 0.7071 -197.7983 239.084)" class="st53" width="6.7" height="6.7"/>
<rect x="186.1" y="372.6" transform="matrix(0.7071 -0.7071 0.7071 0.7071 -210.4309 244.3167)" class="st17" width="7.2" height="7.2"/>
<rect x="185.9" y="390.2" transform="matrix(0.7072 -0.707 0.707 0.7072 -223.0509 249.5119)" class="st1" width="7.7" height="7.7"/>
<rect x="185.6" y="407.8" transform="matrix(0.7072 -0.7071 0.7071 0.7072 -235.6842 254.749)" class="st40" width="8.2" height="8.2"/>
<rect x="185.4" y="425.4" transform="matrix(0.7072 -0.707 0.707 0.7072 -248.3017 259.943)" class="st58" width="8.6" height="8.6"/>
<rect x="206.4" y="196.3" transform="matrix(0.7073 -0.7069 0.7069 0.7073 -78.8732 204.5387)" class="st38" width="2.4" height="2.4"/>
<rect x="206.1" y="213.9" transform="matrix(0.7071 -0.7071 0.7071 0.7071 -91.5035 209.8556)" class="st38" width="2.9" height="2.9"/>
<rect x="205.9" y="231.6" transform="matrix(0.707 -0.7073 0.7073 0.707 -104.1398 215.1542)" class="st63" width="3.4" height="3.4"/>
<rect x="205.6" y="249.2" transform="matrix(0.7071 -0.7071 0.7071 0.7071 -116.7695 220.3273)" class="st33" width="3.8" height="3.8"/>
<rect x="205.4" y="266.8" transform="matrix(0.7069 -0.7073 0.7073 0.7069 -129.4156 225.6585)" class="st0" width="4.3" height="4.3"/>
<rect x="205.2" y="284.4" transform="matrix(0.7071 -0.7071 0.7071 0.7071 -142.0351 230.7865)" class="st39" width="4.8" height="4.8"/>
<rect x="204.9" y="302.1" transform="matrix(0.7073 -0.7069 0.7069 0.7073 -154.6505 235.927)" class="st64" width="5.3" height="5.3"/>
<rect x="204.7" y="319.7" transform="matrix(0.7069 -0.7073 0.7073 0.7069 -167.3189 241.3396)" class="st65" width="5.8" height="5.8"/>
<rect x="204.4" y="337.3" transform="matrix(0.7071 -0.7071 0.7071 0.7071 -179.9329 246.4843)" class="st49" width="6.2" height="6.2"/>
<rect x="204.2" y="354.9" transform="matrix(0.7071 -0.7071 0.7071 0.7071 -192.5667 251.7211)" class="st0" width="6.7" height="6.7"/>
<rect x="204" y="372.6" transform="matrix(0.7071 -0.7071 0.7071 0.7071 -205.1982 256.9495)" class="st66" width="7.2" height="7.2"/>
<rect x="203.7" y="390.2" transform="matrix(0.7072 -0.707 0.707 0.7072 -217.8084 262.108)" class="st31" width="7.7" height="7.7"/>
<rect x="203.5" y="407.8" transform="matrix(0.7071 -0.7071 0.7071 0.7071 -230.4649 267.419)" class="st0" width="8.2" height="8.2"/>
<rect x="203.2" y="425.4" transform="matrix(0.7072 -0.707 0.707 0.7072 -243.071 272.5744)" class="st0" width="8.6" height="8.6"/>
<rect x="224.2" y="196.3" transform="matrix(0.7073 -0.7069 0.7069 0.7073 -73.6437 217.1764)" class="st0" width="2.4" height="2.4"/>
<rect x="224" y="213.9" transform="matrix(0.7071 -0.7071 0.7071 0.7071 -86.2709 222.4883)" class="st65" width="2.9" height="2.9"/>
<rect x="223.8" y="231.6" transform="matrix(0.707 -0.7073 0.7073 0.707 -98.9046 227.7895)" class="st39" width="3.4" height="3.4"/>
<rect x="223.5" y="249.2" transform="matrix(0.7071 -0.7071 0.7071 0.7071 -111.5367 232.9601)" class="st35" width="3.8" height="3.8"/>
<rect x="223.3" y="266.8" transform="matrix(0.7069 -0.7073 0.7073 0.7069 -124.1796 238.3011)" class="st64" width="4.3" height="4.3"/>
<rect x="223" y="284.4" transform="matrix(0.7073 -0.7069 0.7069 0.7073 -136.7894 243.3131)" class="st63" width="4.8" height="4.8"/>
<rect x="222.8" y="302.1" transform="matrix(0.7073 -0.7069 0.7069 0.7073 -149.4219 248.5612)" class="st8" width="5.3" height="5.3"/>
<rect x="222.6" y="319.7" transform="matrix(0.7069 -0.7073 0.7073 0.7069 -162.0841 253.9799)" class="st67" width="5.8" height="5.8"/>
<rect x="222.3" y="337.3" transform="matrix(0.7073 -0.7069 0.7069 0.7073 -174.6816 259.0269)" class="st0" width="6.2" height="6.2"/>
<rect x="222.1" y="354.9" transform="matrix(0.7071 -0.7071 0.7071 0.7071 -187.334 264.3539)" class="st58" width="6.7" height="6.7"/>
<rect x="221.8" y="372.6" transform="matrix(0.7071 -0.7071 0.7071 0.7071 -199.9656 269.5821)" class="st30" width="7.2" height="7.2"/>
<rect x="221.6" y="390.2" transform="matrix(0.7071 -0.7071 0.7071 0.7071 -212.5999 274.8196)" class="st0" width="7.7" height="7.7"/>
<rect x="221.4" y="407.8" transform="matrix(0.7071 -0.7071 0.7071 0.7071 -225.2322 280.0517)" class="st63" width="8.2" height="8.2"/>
<rect x="221.1" y="425.4" transform="matrix(0.7072 -0.707 0.707 0.7072 -237.8416 285.2085)" class="st27" width="8.6" height="8.6"/>
<rect x="242.1" y="196.3" transform="matrix(0.7073 -0.7069 0.7069 0.7073 -68.4152 229.7969)" class="st16" width="2.4" height="2.4"/>
<rect x="241.9" y="213.9" transform="matrix(0.7071 -0.7071 0.7071 0.7071 -81.0379 235.1219)" class="st15" width="2.9" height="2.9"/>
<rect x="241.6" y="231.6" transform="matrix(0.707 -0.7073 0.7073 0.707 -93.6693 240.4248)" class="st1" width="3.4" height="3.4"/>
<rect x="241.4" y="249.2" transform="matrix(0.7071 -0.7071 0.7071 0.7071 -106.3038 245.587)" class="st0" width="3.8" height="3.8"/>
<rect x="241.1" y="266.8" transform="matrix(0.7071 -0.7071 0.7071 0.7071 -118.9366 250.8197)" class="st48" width="4.3" height="4.3"/>
<rect x="240.9" y="284.4" transform="matrix(0.7073 -0.7069 0.7069 0.7073 -131.5605 255.942)" class="st0" width="4.8" height="4.8"/>
<rect x="240.7" y="302.1" transform="matrix(0.7071 -0.7071 0.7071 0.7071 -144.2032 261.2897)" class="st0" width="5.3" height="5.3"/>
<rect x="240.4" y="319.7" transform="matrix(0.7069 -0.7073 0.7073 0.7069 -156.8477 266.6108)" class="st53" width="5.8" height="5.8"/>
<rect x="240.2" y="337.3" transform="matrix(0.7073 -0.707 0.707 0.7073 -169.4526 271.6614)" class="st0" width="6.2" height="6.2"/>
<rect x="239.9" y="354.9" transform="matrix(0.7071 -0.7071 0.7071 0.7071 -182.1004 276.9822)" class="st42" width="6.7" height="6.7"/>
<rect x="239.7" y="372.6" transform="matrix(0.7071 -0.7071 0.7071 0.7071 -194.7328 282.2151)" class="st25" width="7.2" height="7.2"/>
<rect x="239.5" y="390.2" transform="matrix(0.7071 -0.7071 0.7071 0.7071 -207.3661 287.448)" class="st55" width="7.7" height="7.7"/>
<rect x="239.2" y="407.8" transform="matrix(0.7072 -0.707 0.707 0.7072 -219.9785 292.6049)" class="st47" width="8.2" height="8.2"/>
<rect x="239" y="425.4" transform="matrix(0.7072 -0.707 0.707 0.7072 -232.6098 297.8353)" class="st5" width="8.6" height="8.6"/>
<rect x="260" y="196.3" transform="matrix(0.7069 -0.7073 0.7073 0.7069 -63.1598 242.617)" class="st53" width="2.4" height="2.4"/>
<rect x="259.7" y="213.9" transform="matrix(0.7071 -0.7071 0.7071 0.7071 -75.8052 247.7551)" class="st0" width="2.9" height="2.9"/>
<rect x="259.5" y="231.6" transform="matrix(0.707 -0.7073 0.7073 0.707 -88.434 253.0601)" class="st0" width="3.4" height="3.4"/>
<rect x="259.2" y="249.2" transform="matrix(0.7071 -0.7071 0.7071 0.7071 -101.071 258.2259)" class="st56" width="3.8" height="3.8"/>
<rect x="259" y="266.8" transform="matrix(0.7071 -0.7071 0.7071 0.7071 -113.7038 263.4466)" class="st3" width="4.3" height="4.3"/>
<rect x="258.8" y="284.4" transform="matrix(0.7069 -0.7073 0.7073 0.7069 -126.342 268.7935)" class="st0" width="4.8" height="4.8"/>
<rect x="258.5" y="302.1" transform="matrix(0.7071 -0.7071 0.7071 0.7071 -138.9705 273.9225)" class="st16" width="5.3" height="5.3"/>
<rect x="258.3" y="319.7" transform="matrix(0.7069 -0.7073 0.7073 0.7069 -151.6122 279.2463)" class="st45" width="5.8" height="5.8"/>
<rect x="258" y="337.3" transform="matrix(0.7073 -0.7069 0.7069 0.7073 -164.2222 284.2868)" class="st68" width="6.2" height="6.2"/>
<rect x="257.8" y="354.9" transform="matrix(0.7071 -0.7071 0.7071 0.7071 -176.8685 289.6194)" class="st69" width="6.7" height="6.7"/>
<rect x="257.6" y="372.6" transform="matrix(0.707 -0.7072 0.7072 0.707 -189.5162 294.9363)" class="st70" width="7.2" height="7.2"/>
<rect x="257.3" y="390.2" transform="matrix(0.7071 -0.7071 0.7071 0.7071 -202.1335 300.0806)" class="st8" width="7.7" height="7.7"/>
<rect x="257.1" y="407.8" transform="matrix(0.7072 -0.707 0.707 0.7072 -214.748 305.2355)" class="st9" width="8.2" height="8.2"/>
<rect x="256.8" y="425.4" transform="matrix(0.7072 -0.707 0.707 0.7072 -227.3793 310.4659)" class="st19" width="8.6" height="8.6"/>
<rect x="277.8" y="196.3" transform="matrix(0.7069 -0.7073 0.7073 0.7069 -57.9232 255.2543)" class="st34" width="2.4" height="2.4"/>
<rect x="277.6" y="213.9" transform="matrix(0.7071 -0.7071 0.7071 0.7071 -70.5726 260.3872)" class="st0" width="2.9" height="2.9"/>
<rect x="277.3" y="231.6" transform="matrix(0.707 -0.7073 0.7073 0.707 -83.1988 265.6953)" class="st0" width="3.4" height="3.4"/>
<rect x="277.1" y="249.2" transform="matrix(0.7071 -0.7071 0.7071 0.7071 -95.8382 270.8587)" class="st71" width="3.8" height="3.8"/>
<rect x="276.9" y="266.8" transform="matrix(0.7071 -0.7071 0.7071 0.7071 -108.4712 276.0853)" class="st63" width="4.3" height="4.3"/>
<rect x="276.6" y="284.4" transform="matrix(0.7071 -0.7071 0.7071 0.7071 -121.1041 281.3184)" class="st72" width="4.8" height="4.8"/>
<rect x="276.4" y="302.1" transform="matrix(0.7073 -0.7069 0.7069 0.7073 -133.7325 286.4454)" class="st0" width="5.3" height="5.3"/>
<rect x="276.1" y="319.7" transform="matrix(0.7071 -0.7071 0.7071 0.7071 -146.3692 291.7834)" class="st16" width="5.8" height="5.8"/>
<rect x="275.9" y="337.3" transform="matrix(0.7073 -0.7069 0.7069 0.7073 -158.9922 296.9166)" class="st29" width="6.2" height="6.2"/>
<rect x="275.7" y="354.9" transform="matrix(0.7071 -0.7071 0.7071 0.7071 -171.6358 302.2522)" class="st65" width="6.7" height="6.7"/>
<rect x="275.4" y="372.6" transform="matrix(0.7071 -0.7071 0.7071 0.7071 -184.2672 307.4814)" class="st55" width="7.2" height="7.2"/>
<rect x="275.2" y="390.2" transform="matrix(0.7072 -0.707 0.707 0.7072 -196.8864 312.6307)" class="st0" width="7.7" height="7.7"/>
<rect x="274.9" y="407.8" transform="matrix(0.7072 -0.707 0.707 0.7072 -209.5175 317.866)" class="st9" width="8.2" height="8.2"/>
<rect x="274.7" y="425.4" transform="matrix(0.7073 -0.7069 0.7069 0.7073 -222.1319 323.0195)" class="st25" width="8.6" height="8.6"/>
<rect x="295.7" y="196.3" transform="matrix(0.7069 -0.7073 0.7073 0.7069 -52.687 267.89)" class="st73" width="2.4" height="2.4"/>
<rect x="295.5" y="213.9" transform="matrix(0.7071 -0.7071 0.7071 0.7071 -65.34 273.0198)" class="st4" width="2.9" height="2.9"/>
<rect x="295.2" y="231.6" transform="matrix(0.7072 -0.707 0.707 0.7072 -77.9812 278.1814)" class="st47" width="3.4" height="3.4"/>
<rect x="295" y="249.2" transform="matrix(0.7071 -0.7071 0.7071 0.7071 -90.6059 283.4845)" class="st0" width="3.8" height="3.8"/>
<rect x="294.7" y="266.8" transform="matrix(0.7069 -0.7073 0.7073 0.7069 -103.2324 288.8427)" class="st22" width="4.3" height="4.3"/>
<rect x="294.5" y="284.4" transform="matrix(0.7071 -0.7071 0.7071 0.7071 -115.8715 293.9514)" class="st0" width="4.8" height="4.8"/>
<rect x="294.3" y="302.1" transform="matrix(0.7073 -0.7069 0.7069 0.7073 -128.5032 299.0805)" class="st37" width="5.3" height="5.3"/>
<rect x="294" y="319.7" transform="matrix(0.7069 -0.7073 0.7073 0.7069 -141.1411 304.5175)" class="st0" width="5.8" height="5.8"/>
<rect x="293.8" y="337.3" transform="matrix(0.7073 -0.707 0.707 0.7073 -153.7628 309.5515)" class="st57" width="6.2" height="6.2"/>
<rect x="293.5" y="354.9" transform="matrix(0.7071 -0.7071 0.7071 0.7071 -166.4024 314.8863)" class="st0" width="6.7" height="6.7"/>
<rect x="293.3" y="372.6" transform="matrix(0.707 -0.7072 0.7072 0.707 -179.0453 320.2021)" class="st20" width="7.2" height="7.2"/>
<rect x="293.1" y="390.2" transform="matrix(0.7072 -0.707 0.707 0.7072 -191.656 325.2611)" class="st0" width="7.7" height="7.7"/>
<rect x="292.8" y="407.8" transform="matrix(0.7072 -0.707 0.707 0.7072 -204.2869 330.4972)" class="st12" width="8.2" height="8.2"/>
<rect x="292.6" y="425.4" transform="matrix(0.7073 -0.7069 0.7069 0.7073 -216.9033 335.6478)" class="st74" width="8.6" height="8.6"/>
<rect x="313.6" y="196.3" transform="matrix(0.7073 -0.7069 0.7069 0.7073 -47.4993 280.3135)" class="st34" width="2.4" height="2.4"/>
<rect x="313.3" y="213.9" transform="matrix(0.7071 -0.7071 0.7071 0.7071 -60.1073 285.6528)" class="st53" width="2.9" height="2.9"/>
<rect x="313.1" y="231.6" transform="matrix(0.7073 -0.707 0.707 0.7073 -72.7522 290.8035)" class="st44" width="3.4" height="3.4"/>
<rect x="312.8" y="249.2" transform="matrix(0.7074 -0.7069 0.7069 0.7074 -85.3887 295.9784)" class="st0" width="3.8" height="3.8"/>
<rect x="312.6" y="266.8" transform="matrix(0.7069 -0.7073 0.7073 0.7069 -97.9958 301.4792)" class="st63" width="4.3" height="4.3"/>
<rect x="312.4" y="284.4" transform="matrix(0.7071 -0.7071 0.7071 0.7071 -110.6391 306.5774)" class="st0" width="4.8" height="4.8"/>
<rect x="312.1" y="302.1" transform="matrix(0.7073 -0.7069 0.7069 0.7073 -123.2738 311.7042)" class="st0" width="5.3" height="5.3"/>
<rect x="311.9" y="319.7" transform="matrix(0.7071 -0.7071 0.7071 0.7071 -135.9039 317.0432)" class="st73" width="5.8" height="5.8"/>
<rect x="311.6" y="337.3" transform="matrix(0.7071 -0.7071 0.7071 0.7071 -148.5367 322.2815)" class="st24" width="6.2" height="6.2"/>
<rect x="311.4" y="354.9" transform="matrix(0.7071 -0.7071 0.7071 0.7071 -161.1694 327.5141)" class="st64" width="6.7" height="6.7"/>
<rect x="311.2" y="372.6" transform="matrix(0.7071 -0.7071 0.7071 0.7071 -173.802 332.7471)" class="st70" width="7.2" height="7.2"/>
<rect x="310.9" y="390.2" transform="matrix(0.7072 -0.707 0.707 0.7072 -186.4251 337.8869)" class="st0" width="7.7" height="7.7"/>
<rect x="310.7" y="407.8" transform="matrix(0.7072 -0.707 0.707 0.7072 -199.0563 343.1275)" class="st24" width="8.2" height="8.2"/>
<rect x="310.4" y="425.4" transform="matrix(0.7072 -0.707 0.707 0.7072 -211.6872 348.3586)" class="st27" width="8.6" height="8.6"/>
<rect x="329" y="372.6" transform="matrix(0.7071 -0.7071 0.7071 0.7071 -168.5694 345.3789)" class="st54" width="7.2" height="7.2"/>
<rect x="328.8" y="390.2" transform="matrix(0.7072 -0.707 0.707 0.7072 -181.1952 350.5215)" class="st11" width="7.7" height="7.7"/>
<rect x="328.5" y="407.8" transform="matrix(0.7072 -0.707 0.707 0.7072 -193.8259 355.7573)" class="st16" width="8.2" height="8.2"/>
<rect x="328.3" y="425.4" transform="matrix(0.7072 -0.707 0.707 0.7072 -206.4567 360.9888)" class="st24" width="8.6" height="8.6"/>
<rect x="1" y="187.5" transform="matrix(0.7072 -0.707 0.707 0.7072 -132.7115 56.7108)" class="st0" width="2.2" height="2.2"/>
<rect x="0.8" y="205.1" transform="matrix(0.707 -0.7072 0.7072 0.707 -145.3822 61.9822)" class="st51" width="2.6" height="2.6"/>
<rect x="0.6" y="222.8" transform="matrix(0.7073 -0.7069 0.7069 0.7073 -157.9584 67.158)" class="st19" width="3.1" height="3.1"/>
<rect x="0.3" y="240.4" transform="matrix(0.7071 -0.7071 0.7071 0.7071 -170.6281 72.4278)" class="st2" width="3.6" height="3.6"/>
<rect x="0.1" y="258" transform="matrix(0.707 -0.7072 0.7072 0.707 -183.2758 77.6758)" class="st10" width="4.1" height="4.1"/>
<rect x="-0.2" y="275.6" transform="matrix(0.7072 -0.7071 0.7071 0.7072 -195.8788 82.8781)" class="st15" width="4.6" height="4.6"/>
<rect x="-0.4" y="293.3" transform="matrix(0.7073 -0.707 0.707 0.7073 -208.4839 88.0823)" class="st53" width="5" height="5"/>
<rect x="-0.6" y="310.9" transform="matrix(0.7073 -0.7069 0.7069 0.7073 -221.1027 93.3015)" class="st22" width="5.5" height="5.5"/>
<rect x="-0.9" y="328.5" transform="matrix(0.7072 -0.707 0.707 0.7072 -233.7652 98.5642)" class="st17" width="6" height="6"/>
<rect x="-1.1" y="346.1" transform="matrix(0.707 -0.7072 0.7072 0.707 -246.4517 103.851)" class="st39" width="6.5" height="6.5"/>
<rect x="-1.4" y="363.8" transform="matrix(0.7071 -0.7071 0.7071 0.7071 -259.0586 109.0575)" class="st73" width="7" height="7"/>
<rect x="-1.6" y="381.4" transform="matrix(0.7071 -0.7071 0.7071 0.7071 -271.6776 114.2763)" class="st0" width="7.4" height="7.4"/>
<rect x="-1.8" y="399" transform="matrix(0.7071 -0.7071 0.7071 0.7071 -284.334 119.5328)" class="st31" width="7.9" height="7.9"/>
<rect x="-2.1" y="416.6" transform="matrix(0.7071 -0.7071 0.7071 0.7071 -296.9451 124.7432)" class="st47" width="8.4" height="8.4"/>
<rect x="-2.3" y="434.3" transform="matrix(0.7071 -0.7071 0.7071 0.7071 -309.5765 129.9752)" class="st0" width="8.9" height="8.9"/>
<rect x="18.9" y="187.5" transform="matrix(0.707 -0.7072 0.7072 0.707 -127.5171 69.3868)" class="st5" width="2.2" height="2.2"/>
<rect x="18.7" y="205.1" transform="matrix(0.707 -0.7072 0.7072 0.707 -140.1479 74.6165)" class="st0" width="2.6" height="2.6"/>
<rect x="18.4" y="222.8" transform="matrix(0.7073 -0.7069 0.7069 0.7073 -152.7267 79.7851)" class="st8" width="3.1" height="3.1"/>
<rect x="18.2" y="240.4" transform="matrix(0.7071 -0.7071 0.7071 0.7071 -165.3955 85.0606)" class="st0" width="3.6" height="3.6"/>
<rect x="17.9" y="258" transform="matrix(0.7069 -0.7073 0.7073 0.7069 -178.0845 90.3585)" class="st0" width="4.1" height="4.1"/>
<rect x="17.7" y="275.6" transform="matrix(0.7072 -0.7071 0.7071 0.7072 -190.6471 95.5098)" class="st3" width="4.6" height="4.6"/>
<rect x="17.5" y="293.3" transform="matrix(0.7073 -0.707 0.707 0.7073 -203.2529 100.7117)" class="st11" width="5" height="5"/>
<rect x="17.2" y="310.9" transform="matrix(0.7072 -0.7071 0.7071 0.7072 -215.9133 105.9761)" class="st41" width="5.5" height="5.5"/>
<rect x="17" y="328.5" transform="matrix(0.7071 -0.7071 0.7071 0.7071 -228.5463 111.209)" class="st5" width="6" height="6"/>
<rect x="16.7" y="346.1" transform="matrix(0.707 -0.7072 0.7072 0.707 -241.2179 116.4854)" class="st35" width="6.5" height="6.5"/>
<rect x="16.5" y="363.8" transform="matrix(0.7071 -0.7071 0.7071 0.7071 -253.8255 121.6896)" class="st0" width="7" height="7"/>
<rect x="16.3" y="381.4" transform="matrix(0.707 -0.7072 0.7072 0.707 -266.4828 126.9491)" class="st0" width="7.4" height="7.4"/>
<rect x="16" y="399" transform="matrix(0.7071 -0.7071 0.7071 0.7071 -279.1004 132.1656)" class="st61" width="7.9" height="7.9"/>
<rect x="15.8" y="416.6" transform="matrix(0.7071 -0.7071 0.7071 0.7071 -291.7139 137.3766)" class="st0" width="8.4" height="8.4"/>
<rect x="15.5" y="434.3" transform="matrix(0.7071 -0.7071 0.7071 0.7071 -304.3442 142.6071)" class="st32" width="8.9" height="8.9"/>
<rect x="36.8" y="187.5" transform="matrix(0.707 -0.7072 0.7072 0.707 -122.2859 82.0267)" class="st26" width="2.2" height="2.2"/>
<rect x="36.5" y="205.1" transform="matrix(0.707 -0.7072 0.7072 0.707 -134.9135 87.2512)" class="st28" width="2.6" height="2.6"/>
<rect x="36.3" y="222.8" transform="matrix(0.7071 -0.7071 0.7071 0.7071 -147.5301 92.4608)" class="st62" width="3.1" height="3.1"/>
<rect x="36" y="240.4" transform="matrix(0.707 -0.7072 0.7072 0.707 -160.1913 97.7319)" class="st21" width="3.6" height="3.6"/>
<rect x="35.8" y="258" transform="matrix(0.7069 -0.7074 0.7074 0.7069 -172.8504 102.9989)" class="st57" width="4.1" height="4.1"/>
<rect x="35.6" y="275.6" transform="matrix(0.7072 -0.7071 0.7071 0.7072 -185.4155 108.1414)" class="st16" width="4.6" height="4.6"/>
<rect x="35.3" y="293.3" transform="matrix(0.7072 -0.707 0.707 0.7072 -198.0255 113.345)" class="st0" width="5" height="5"/>
<rect x="35.1" y="310.9" transform="matrix(0.7072 -0.7071 0.7071 0.7072 -210.6815 118.6079)" class="st48" width="5.5" height="5.5"/>
<rect x="34.8" y="328.5" transform="matrix(0.7072 -0.707 0.707 0.7072 -223.3045 123.8291)" class="st23" width="6" height="6"/>
<rect x="34.6" y="346.1" transform="matrix(0.707 -0.7072 0.7072 0.707 -235.9839 129.1194)" class="st59" width="6.5" height="6.5"/>
<rect x="34.4" y="363.8" transform="matrix(0.7071 -0.7071 0.7071 0.7071 -248.5952 134.3251)" class="st9" width="7" height="7"/>
<rect x="34.1" y="381.4" transform="matrix(0.707 -0.7072 0.7072 0.707 -261.2489 139.5831)" class="st72" width="7.4" height="7.4"/>
<rect x="33.9" y="399" transform="matrix(0.7071 -0.7071 0.7071 0.7071 -273.8672 144.7988)" class="st0" width="7.9" height="7.9"/>
<rect x="33.6" y="416.6" transform="matrix(0.7071 -0.7071 0.7071 0.7071 -286.4816 150.009)" class="st0" width="8.4" height="8.4"/>
<rect x="33.4" y="434.3" transform="matrix(0.7072 -0.7071 0.7071 0.7072 -299.1007 155.226)" class="st0" width="8.9" height="8.9"/>
<rect x="54.6" y="187.5" transform="matrix(0.707 -0.7072 0.7072 0.707 -117.0476 94.6566)" class="st64" width="2.2" height="2.2"/>
<rect x="54.4" y="205.1" transform="matrix(0.7071 -0.7071 0.7071 0.7071 -129.6677 99.8658)" class="st0" width="2.6" height="2.6"/>
<rect x="54.2" y="222.8" transform="matrix(0.7073 -0.7069 0.7069 0.7073 -142.2703 105.0489)" class="st35" width="3.1" height="3.1"/>
<rect x="53.9" y="240.4" transform="matrix(0.7071 -0.7071 0.7071 0.7071 -154.9327 110.3303)" class="st0" width="3.6" height="3.6"/>
<rect x="53.7" y="258" transform="matrix(0.7069 -0.7073 0.7073 0.7069 -167.6108 115.6324)" class="st45" width="4.1" height="4.1"/>
<rect x="53.4" y="275.6" transform="matrix(0.7072 -0.7071 0.7071 0.7072 -180.1837 120.7735)" class="st16" width="4.6" height="4.6"/>
<rect x="53.2" y="293.3" transform="matrix(0.7073 -0.707 0.707 0.7073 -192.793 125.9716)" class="st23" width="5" height="5"/>
<rect x="53" y="310.9" transform="matrix(0.7072 -0.707 0.707 0.7072 -205.4262 131.2066)" class="st75" width="5.5" height="5.5"/>
<rect x="52.7" y="328.5" transform="matrix(0.7072 -0.707 0.707 0.7072 -218.0732 136.4603)" class="st48" width="6" height="6"/>
<rect x="52.5" y="346.1" transform="matrix(0.707 -0.7072 0.7072 0.707 -230.7498 141.7538)" class="st61" width="6.5" height="6.5"/>
<rect x="52.2" y="363.8" transform="matrix(0.7071 -0.7071 0.7071 0.7071 -243.3624 146.9581)" class="st8" width="7" height="7"/>
<rect x="52" y="381.4" transform="matrix(0.7071 -0.7071 0.7071 0.7071 -255.9928 152.1876)" class="st36" width="7.4" height="7.4"/>
<rect x="51.7" y="399" transform="matrix(0.7071 -0.7071 0.7071 0.7071 -268.6364 157.4348)" class="st39" width="7.9" height="7.9"/>
<rect x="51.5" y="416.6" transform="matrix(0.7071 -0.7071 0.7071 0.7071 -281.2473 162.6383)" class="st24" width="8.4" height="8.4"/>
<rect x="51.3" y="434.3" transform="matrix(0.7071 -0.7071 0.7071 0.7071 -293.882 167.8745)" class="st3" width="8.9" height="8.9"/>
<rect x="72.5" y="187.5" transform="matrix(0.707 -0.7072 0.7072 0.707 -111.8129 107.2912)" class="st0" width="2.2" height="2.2"/>
<rect x="72.3" y="205.1" transform="matrix(0.707 -0.7072 0.7072 0.707 -124.4447 112.5202)" class="st4" width="2.6" height="2.6"/>
<rect x="72" y="222.8" transform="matrix(0.7071 -0.7071 0.7071 0.7071 -137.0623 117.7216)" class="st0" width="3.1" height="3.1"/>
<rect x="71.8" y="240.4" transform="matrix(0.7071 -0.7071 0.7071 0.7071 -149.6975 122.9588)" class="st15" width="3.6" height="3.6"/>
<rect x="71.5" y="258" transform="matrix(0.7069 -0.7073 0.7073 0.7069 -162.374 128.2692)" class="st0" width="4.1" height="4.1"/>
<rect x="71.3" y="275.6" transform="matrix(0.7072 -0.7071 0.7071 0.7072 -174.9521 133.4052)" class="st28" width="4.6" height="4.6"/>
<rect x="71.1" y="293.3" transform="matrix(0.7073 -0.707 0.707 0.7073 -187.5629 138.6019)" class="st0" width="5" height="5"/>
<rect x="70.8" y="310.9" transform="matrix(0.7072 -0.7071 0.7071 0.7072 -200.2178 143.8719)" class="st72" width="5.5" height="5.5"/>
<rect x="70.6" y="328.5" transform="matrix(0.7072 -0.707 0.707 0.7072 -212.8398 149.0883)" class="st0" width="6" height="6"/>
<rect x="70.3" y="346.1" transform="matrix(0.707 -0.7072 0.7072 0.707 -225.5158 154.3878)" class="st0" width="6.5" height="6.5"/>
<rect x="70.1" y="363.8" transform="matrix(0.7071 -0.7071 0.7071 0.7071 -238.1276 159.5878)" class="st63" width="7" height="7"/>
<rect x="69.9" y="381.4" transform="matrix(0.7071 -0.7071 0.7071 0.7071 -250.7706 164.8359)" class="st27" width="7.4" height="7.4"/>
<rect x="69.6" y="399" transform="matrix(0.7071 -0.7071 0.7071 0.7071 -263.401 170.0652)" class="st0" width="7.9" height="7.9"/>
<rect x="69.4" y="416.6" transform="matrix(0.7071 -0.7071 0.7071 0.7071 -276.015 175.2708)" class="st33" width="8.4" height="8.4"/>
<rect x="69.1" y="434.3" transform="matrix(0.7071 -0.7071 0.7071 0.7071 -288.6477 180.5039)" class="st44" width="8.9" height="8.9"/>
<rect x="90.4" y="187.5" transform="matrix(0.7072 -0.707 0.707 0.7072 -106.5578 119.868)" class="st0" width="2.2" height="2.2"/>
<rect x="90.1" y="205.1" transform="matrix(0.707 -0.7072 0.7072 0.707 -119.2104 125.1545)" class="st0" width="2.6" height="2.6"/>
<rect x="89.9" y="222.8" transform="matrix(0.7073 -0.7069 0.7069 0.7073 -131.8107 130.3087)" class="st70" width="3.1" height="3.1"/>
<rect x="89.6" y="240.4" transform="matrix(0.7071 -0.7071 0.7071 0.7071 -144.4649 135.5916)" class="st30" width="3.6" height="3.6"/>
<rect x="89.4" y="258" transform="matrix(0.707 -0.7072 0.7072 0.707 -157.1081 140.8462)" class="st46" width="4.1" height="4.1"/>
<rect x="89.2" y="275.6" transform="matrix(0.7072 -0.7071 0.7071 0.7072 -169.7204 146.037)" class="st0" width="4.6" height="4.6"/>
<rect x="88.9" y="293.3" transform="matrix(0.7072 -0.707 0.707 0.7072 -182.335 151.2357)" class="st46" width="5" height="5"/>
<rect x="88.7" y="310.9" transform="matrix(0.7072 -0.707 0.707 0.7072 -194.9657 156.4673)" class="st74" width="5.5" height="5.5"/>
<rect x="88.4" y="328.5" transform="matrix(0.7072 -0.707 0.707 0.7072 -207.6085 161.7197)" class="st0" width="6" height="6"/>
<rect x="88.2" y="346.1" transform="matrix(0.707 -0.7072 0.7072 0.707 -220.2816 167.0222)" class="st9" width="6.5" height="6.5"/>
<rect x="88" y="363.8" transform="matrix(0.7071 -0.7071 0.7071 0.7071 -232.8948 172.2207)" class="st0" width="7" height="7"/>
<rect x="87.7" y="381.4" transform="matrix(0.7071 -0.7071 0.7071 0.7071 -245.5175 177.4374)" class="st45" width="7.4" height="7.4"/>
<rect x="87.5" y="399" transform="matrix(0.7071 -0.7071 0.7071 0.7071 -258.1679 182.6984)" class="st66" width="7.9" height="7.9"/>
<rect x="87.2" y="416.6" transform="matrix(0.7071 -0.7071 0.7071 0.7071 -270.7849 187.9059)" class="st74" width="8.4" height="8.4"/>
<rect x="87" y="434.3" transform="matrix(0.7071 -0.7071 0.7071 0.7071 -283.4155 193.1363)" class="st36" width="8.9" height="8.9"/>
<rect x="108.2" y="187.5" transform="matrix(0.7072 -0.707 0.707 0.7072 -101.3268 132.4991)" class="st61" width="2.2" height="2.2"/>
<rect x="108" y="205.1" transform="matrix(0.7071 -0.7071 0.7071 0.7071 -113.9668 137.7593)" class="st15" width="2.6" height="2.6"/>
<rect x="107.7" y="222.8" transform="matrix(0.7073 -0.7069 0.7069 0.7073 -126.5809 142.9385)" class="st16" width="3.1" height="3.1"/>
<rect x="107.5" y="240.4" transform="matrix(0.7071 -0.7071 0.7071 0.7071 -139.2322 148.2245)" class="st0" width="3.6" height="3.6"/>
<rect x="107.3" y="258" transform="matrix(0.7069 -0.7073 0.7073 0.7069 -151.9003 153.5432)" class="st62" width="4.1" height="4.1"/>
<rect x="107" y="275.6" transform="matrix(0.7072 -0.7071 0.7071 0.7072 -164.4888 158.6686)" class="st0" width="4.6" height="4.6"/>
<rect x="106.8" y="293.3" transform="matrix(0.7072 -0.707 0.707 0.7072 -177.1048 163.8662)" class="st28" width="5" height="5"/>
<rect x="106.5" y="310.9" transform="matrix(0.7072 -0.7071 0.7071 0.7072 -189.7522 169.132)" class="st22" width="5.5" height="5.5"/>
<rect x="106.3" y="328.5" transform="matrix(0.7072 -0.707 0.707 0.7072 -202.3793 174.3546)" class="st0" width="6" height="6"/>
<rect x="106.1" y="346.1" transform="matrix(0.707 -0.7072 0.7072 0.707 -215.0477 179.6562)" class="st11" width="6.5" height="6.5"/>
<rect x="105.8" y="363.8" transform="matrix(0.7071 -0.7071 0.7071 0.7071 -227.664 184.8569)" class="st76" width="7" height="7"/>
<rect x="105.6" y="381.4" transform="matrix(0.707 -0.7072 0.7072 0.707 -240.3116 190.1156)" class="st33" width="7.4" height="7.4"/>
<rect x="105.3" y="399" transform="matrix(0.7071 -0.7071 0.7071 0.7071 -252.9367 195.3349)" class="st36" width="7.9" height="7.9"/>
<rect x="105.1" y="416.6" transform="matrix(0.7071 -0.7071 0.7071 0.7071 -265.5508 200.5351)" class="st0" width="8.4" height="8.4"/>
<rect x="104.9" y="434.3" transform="matrix(0.7072 -0.7071 0.7071 0.7072 -278.1759 205.7563)" class="st77" width="8.9" height="8.9"/>
<rect x="126.1" y="187.5" transform="matrix(0.707 -0.7072 0.7072 0.707 -96.1087 145.1957)" class="st59" width="2.2" height="2.2"/>
<rect x="125.9" y="205.1" transform="matrix(0.7071 -0.7071 0.7071 0.7071 -108.7341 150.3921)" class="st16" width="2.6" height="2.6"/>
<rect x="125.6" y="222.8" transform="matrix(0.7071 -0.7071 0.7071 0.7071 -121.3652 155.619)" class="st0" width="3.1" height="3.1"/>
<rect x="125.4" y="240.4" transform="matrix(0.707 -0.7072 0.7072 0.707 -134.0156 160.9082)" class="st2" width="3.6" height="3.6"/>
<rect x="125.1" y="258" transform="matrix(0.7069 -0.7073 0.7073 0.7069 -146.6636 166.1799)" class="st25" width="4.1" height="4.1"/>
<rect x="124.9" y="275.6" transform="matrix(0.7072 -0.7071 0.7071 0.7072 -159.257 171.3006)" class="st62" width="4.6" height="4.6"/>
<rect x="124.7" y="293.3" transform="matrix(0.7073 -0.707 0.707 0.7073 -171.873 176.4922)" class="st34" width="5" height="5"/>
<rect x="124.4" y="310.9" transform="matrix(0.7072 -0.7071 0.7071 0.7072 -184.5223 181.7677)" class="st0" width="5.5" height="5.5"/>
<rect x="124.2" y="328.5" transform="matrix(0.7072 -0.707 0.707 0.7072 -197.1461 186.9824)" class="st78" width="6" height="6"/>
<rect x="123.9" y="346.1" transform="matrix(0.707 -0.7072 0.7072 0.707 -209.8137 192.2902)" class="st20" width="6.5" height="6.5"/>
<rect x="123.7" y="363.8" transform="matrix(0.7071 -0.7071 0.7071 0.7071 -222.4296 197.4862)" class="st56" width="7" height="7"/>
<rect x="123.5" y="381.4" transform="matrix(0.7071 -0.7071 0.7071 0.7071 -235.0692 202.7323)" class="st74" width="7.4" height="7.4"/>
<rect x="123.2" y="399" transform="matrix(0.7071 -0.7071 0.7071 0.7071 -247.7017 207.9649)" class="st0" width="7.9" height="7.9"/>
<rect x="123" y="416.6" transform="matrix(0.7071 -0.7071 0.7071 0.7071 -260.3187 213.1674)" class="st10" width="8.4" height="8.4"/>
<rect x="122.7" y="434.3" transform="matrix(0.7071 -0.7071 0.7071 0.7071 -272.9513 218.4006)" class="st50" width="8.9" height="8.9"/>
<rect x="144" y="187.5" transform="matrix(0.7072 -0.707 0.707 0.7072 -90.8648 157.7612)" class="st0" width="2.2" height="2.2"/>
<rect x="143.7" y="205.1" transform="matrix(0.707 -0.7072 0.7072 0.707 -103.5073 163.058)" class="st79" width="2.6" height="2.6"/>
<rect x="143.5" y="222.8" transform="matrix(0.7073 -0.7069 0.7069 0.7073 -116.1213 168.1984)" class="st20" width="3.1" height="3.1"/>
<rect x="143.2" y="240.4" transform="matrix(0.7071 -0.7071 0.7071 0.7071 -128.7668 173.4901)" class="st7" width="3.6" height="3.6"/>
<rect x="143" y="258" transform="matrix(0.7069 -0.7073 0.7073 0.7069 -141.4196 178.7924)" class="st0" width="4.1" height="4.1"/>
<rect x="142.8" y="275.6" transform="matrix(0.7072 -0.7071 0.7071 0.7072 -154.0254 183.9322)" class="st32" width="4.6" height="4.6"/>
<rect x="142.5" y="293.3" transform="matrix(0.7073 -0.707 0.707 0.7073 -166.6429 189.1225)" class="st50" width="5" height="5"/>
<rect x="142.3" y="310.9" transform="matrix(0.7072 -0.707 0.707 0.7072 -179.2751 194.3583)" class="st3" width="5.5" height="5.5"/>
<rect x="142" y="328.5" transform="matrix(0.7072 -0.707 0.707 0.7072 -191.915 199.6135)" class="st0" width="6" height="6"/>
<rect x="141.8" y="346.1" transform="matrix(0.707 -0.7072 0.7072 0.707 -204.5795 204.9245)" class="st35" width="6.5" height="6.5"/>
<rect x="141.6" y="363.8" transform="matrix(0.7071 -0.7071 0.7071 0.7071 -217.197 210.1186)" class="st50" width="7" height="7"/>
<rect x="141.3" y="381.4" transform="matrix(0.7071 -0.7071 0.7071 0.7071 -229.8376 215.3693)" class="st39" width="7.4" height="7.4"/>
<rect x="141.1" y="399" transform="matrix(0.7071 -0.7071 0.7071 0.7071 -242.4686 220.5979)" class="st0" width="7.9" height="7.9"/>
<rect x="140.8" y="416.6" transform="matrix(0.7071 -0.7071 0.7071 0.7071 -255.0883 225.8029)" class="st0" width="8.4" height="8.4"/>
<rect x="140.6" y="434.3" transform="matrix(0.7071 -0.7071 0.7071 0.7071 -267.7191 231.033)" class="st19" width="8.9" height="8.9"/>
<rect x="161.8" y="187.5" transform="matrix(0.7069 -0.7073 0.7073 0.7069 -85.6422 170.5061)" class="st0" width="2.2" height="2.2"/>
<rect x="161.6" y="205.1" transform="matrix(0.7071 -0.7071 0.7071 0.7071 -98.2689 175.6572)" class="st55" width="2.6" height="2.6"/>
<rect x="161.3" y="222.8" transform="matrix(0.7071 -0.7071 0.7071 0.7071 -110.9014 180.8902)" class="st0" width="3.1" height="3.1"/>
<rect x="161.1" y="240.4" transform="matrix(0.7071 -0.7071 0.7071 0.7071 -123.5342 186.1227)" class="st0" width="3.6" height="3.6"/>
<rect x="160.9" y="258" transform="matrix(0.7068 -0.7075 0.7075 0.7068 -136.2018 191.5056)" class="st48" width="4.1" height="4.1"/>
<rect x="160.6" y="275.6" transform="matrix(0.7072 -0.707 0.707 0.7072 -148.7872 196.5403)" class="st37" width="4.6" height="4.6"/>
<rect x="160.4" y="293.3" transform="matrix(0.7073 -0.7069 0.7069 0.7073 -161.4077 201.7341)" class="st80" width="5" height="5"/>
<rect x="160.1" y="310.9" transform="matrix(0.7071 -0.7071 0.7071 0.7071 -174.0641 207.0487)" class="st0" width="5.5" height="5.5"/>
<rect x="159.9" y="328.5" transform="matrix(0.7072 -0.707 0.707 0.7072 -186.6853 212.2489)" class="st4" width="6" height="6"/>
<rect x="159.7" y="346.1" transform="matrix(0.707 -0.7072 0.7072 0.707 -199.3454 217.5589)" class="st0" width="6.5" height="6.5"/>
<rect x="159.4" y="363.8" transform="matrix(0.7071 -0.7071 0.7071 0.7071 -211.9658 222.7555)" class="st29" width="7" height="7"/>
<rect x="159.2" y="381.4" transform="matrix(0.7071 -0.7071 0.7071 0.7071 -224.597 227.984)" class="st45" width="7.4" height="7.4"/>
<rect x="158.9" y="399" transform="matrix(0.7071 -0.7071 0.7071 0.7071 -237.2278 233.2136)" class="st1" width="7.9" height="7.9"/>
<rect x="158.7" y="416.6" transform="matrix(0.7071 -0.7071 0.7071 0.7071 -249.8635 238.4529)" class="st0" width="8.4" height="8.4"/>
<rect x="158.5" y="434.3" transform="matrix(0.7071 -0.7071 0.7071 0.7071 -262.4947 243.6822)" class="st0" width="8.9" height="8.9"/>
<rect x="179.7" y="187.5" transform="matrix(0.7073 -0.7069 0.7069 0.7073 -80.4018 182.9805)" class="st68" width="2.2" height="2.2"/>
<rect x="179.4" y="205.1" transform="matrix(0.7069 -0.7073 0.7073 0.7069 -93.041 188.3636)" class="st47" width="2.6" height="2.6"/>
<rect x="179.2" y="222.8" transform="matrix(0.7073 -0.7069 0.7069 0.7073 -105.6617 193.4582)" class="st0" width="3.1" height="3.1"/>
<rect x="179" y="240.4" transform="matrix(0.7072 -0.707 0.707 0.7072 -118.2938 198.7025)" class="st25" width="3.6" height="3.6"/>
<rect x="178.7" y="258" transform="matrix(0.7071 -0.7071 0.7071 0.7071 -130.9345 203.9882)" class="st47" width="4.1" height="4.1"/>
<rect x="178.5" y="275.6" transform="matrix(0.7072 -0.707 0.707 0.7072 -143.5576 209.1758)" class="st27" width="4.6" height="4.6"/>
<rect x="178.2" y="293.3" transform="matrix(0.7072 -0.707 0.707 0.7072 -156.1887 214.4061)" class="st10" width="5" height="5"/>
<rect x="178" y="310.9" transform="matrix(0.7073 -0.7069 0.7069 0.7073 -168.8084 219.5965)" class="st0" width="5.5" height="5.5"/>
<rect x="177.8" y="328.5" transform="matrix(0.7073 -0.7069 0.7069 0.7073 -181.4413 224.8376)" class="st38" width="6" height="6"/>
<rect x="177.5" y="346.1" transform="matrix(0.707 -0.7072 0.7072 0.707 -194.1115 230.1929)" class="st40" width="6.5" height="6.5"/>
<rect x="177.3" y="363.8" transform="matrix(0.7071 -0.7071 0.7071 0.7071 -206.7316 235.3842)" class="st0" width="7" height="7"/>
<rect x="177" y="381.4" transform="matrix(0.707 -0.7072 0.7072 0.707 -219.3766 240.651)" class="st47" width="7.4" height="7.4"/>
<rect x="176.8" y="399" transform="matrix(0.7071 -0.7071 0.7071 0.7071 -231.9966 245.8498)" class="st0" width="7.9" height="7.9"/>
<rect x="176.6" y="416.6" transform="matrix(0.7072 -0.707 0.707 0.7072 -244.6152 251.0461)" class="st49" width="8.4" height="8.4"/>
<rect x="176.3" y="434.3" transform="matrix(0.7072 -0.7071 0.7071 0.7072 -257.2488 256.2836)" class="st80" width="8.9" height="8.9"/>
<rect x="197.6" y="187.5" transform="matrix(0.7075 -0.7067 0.7067 0.7075 -75.1751 195.5206)" class="st12" width="2.2" height="2.2"/>
<rect x="197.3" y="205.1" transform="matrix(0.7071 -0.7071 0.7071 0.7071 -87.8034 200.9234)" class="st19" width="2.6" height="2.6"/>
<rect x="197.1" y="222.8" transform="matrix(0.7073 -0.7069 0.7069 0.7073 -100.4314 206.0814)" class="st31" width="3.1" height="3.1"/>
<rect x="196.8" y="240.4" transform="matrix(0.7072 -0.707 0.707 0.7072 -113.0627 211.3274)" class="st0" width="3.6" height="3.6"/>
<rect x="196.6" y="258" transform="matrix(0.7069 -0.7073 0.7073 0.7069 -125.7164 216.7278)" class="st0" width="4.1" height="4.1"/>
<rect x="196.4" y="275.6" transform="matrix(0.7073 -0.7069 0.7069 0.7073 -138.3172 221.7496)" class="st0" width="4.6" height="4.6"/>
<rect x="196.1" y="293.3" transform="matrix(0.7073 -0.7069 0.7069 0.7073 -150.9479 226.9886)" class="st10" width="5" height="5"/>
<rect x="195.9" y="310.9" transform="matrix(0.7071 -0.7071 0.7071 0.7071 -163.6001 232.3186)" class="st0" width="5.5" height="5.5"/>
<rect x="195.6" y="328.5" transform="matrix(0.7071 -0.7071 0.7071 0.7071 -176.2327 237.5512)" class="st76" width="6" height="6"/>
<rect x="195.4" y="346.1" transform="matrix(0.7071 -0.7071 0.7071 0.7071 -188.8658 242.7848)" class="st26" width="6.5" height="6.5"/>
<rect x="195.2" y="363.8" transform="matrix(0.7071 -0.7071 0.7071 0.7071 -201.4986 248.0179)" class="st37" width="7" height="7"/>
<rect x="194.9" y="381.4" transform="matrix(0.707 -0.7072 0.7072 0.707 -214.1555 253.3242)" class="st79" width="7.4" height="7.4"/>
<rect x="194.7" y="399" transform="matrix(0.7071 -0.7071 0.7071 0.7071 -226.7627 258.479)" class="st0" width="7.9" height="7.9"/>
<rect x="194.4" y="416.6" transform="matrix(0.7071 -0.7071 0.7071 0.7071 -239.3982 263.7182)" class="st0" width="8.4" height="8.4"/>
<rect x="194.2" y="434.3" transform="matrix(0.7072 -0.707 0.707 0.7072 -252.0022 268.8762)" class="st24" width="8.9" height="8.9"/>
<rect x="215.4" y="187.5" transform="matrix(0.7066 -0.7076 0.7076 0.7066 -69.9247 208.5195)" class="st27" width="2.2" height="2.2"/>
<rect x="215.2" y="205.1" transform="matrix(0.7071 -0.7071 0.7071 0.7071 -82.5706 213.5559)" class="st26" width="2.6" height="2.6"/>
<rect x="214.9" y="222.8" transform="matrix(0.7073 -0.7069 0.7069 0.7073 -95.202 218.7183)" class="st33" width="3.1" height="3.1"/>
<rect x="214.7" y="240.4" transform="matrix(0.707 -0.7072 0.7072 0.707 -107.84 224.0839)" class="st0" width="3.6" height="3.6"/>
<rect x="214.5" y="258" transform="matrix(0.7069 -0.7074 0.7074 0.7069 -120.4801 229.3698)" class="st22" width="4.1" height="4.1"/>
<rect x="214.2" y="275.6" transform="matrix(0.7071 -0.7071 0.7071 0.7071 -133.1018 234.4867)" class="st69" width="4.6" height="4.6"/>
<rect x="214" y="293.3" transform="matrix(0.7073 -0.7069 0.7069 0.7073 -145.7188 239.6174)" class="st0" width="5" height="5"/>
<rect x="213.7" y="310.9" transform="matrix(0.7071 -0.7071 0.7071 0.7071 -158.3675 244.9509)" class="st0" width="5.5" height="5.5"/>
<rect x="213.5" y="328.5" transform="matrix(0.7073 -0.7069 0.7069 0.7073 -170.9816 250.0975)" class="st8" width="6" height="6"/>
<rect x="213.3" y="346.1" transform="matrix(0.7071 -0.7071 0.7071 0.7071 -183.6331 255.4174)" class="st54" width="6.5" height="6.5"/>
<rect x="213" y="363.8" transform="matrix(0.7071 -0.7071 0.7071 0.7071 -196.2659 260.6503)" class="st52" width="7" height="7"/>
<rect x="212.8" y="381.4" transform="matrix(0.707 -0.7072 0.7072 0.707 -208.9216 265.9627)" class="st54" width="7.4" height="7.4"/>
<rect x="212.5" y="399" transform="matrix(0.7071 -0.7071 0.7071 0.7071 -221.53 271.1116)" class="st0" width="7.9" height="7.9"/>
<rect x="212.3" y="416.6" transform="matrix(0.7072 -0.707 0.707 0.7072 -234.1408 276.2756)" class="st31" width="8.4" height="8.4"/>
<rect x="212.1" y="434.3" transform="matrix(0.7072 -0.707 0.707 0.7072 -246.7728 281.5103)" class="st0" width="8.9" height="8.9"/>
<rect x="233.3" y="187.5" transform="matrix(0.7071 -0.7071 0.7071 0.7071 -64.7043 220.9661)" class="st1" width="2.2" height="2.2"/>
<rect x="233" y="205.1" transform="matrix(0.7071 -0.7071 0.7071 0.7071 -77.3381 226.1891)" class="st0" width="2.6" height="2.6"/>
<rect x="232.8" y="222.8" transform="matrix(0.7073 -0.7069 0.7069 0.7073 -89.9722 231.3481)" class="st21" width="3.1" height="3.1"/>
<rect x="232.6" y="240.4" transform="matrix(0.7072 -0.707 0.707 0.7072 -102.6025 236.5943)" class="st6" width="3.6" height="3.6"/>
<rect x="232.3" y="258" transform="matrix(0.7069 -0.7074 0.7074 0.7069 -115.2427 242.0081)" class="st61" width="4.1" height="4.1"/>
<rect x="232.1" y="275.6" transform="matrix(0.7071 -0.7071 0.7071 0.7071 -127.8692 247.1196)" class="st54" width="4.6" height="4.6"/>
<rect x="231.8" y="293.3" transform="matrix(0.7073 -0.7069 0.7069 0.7073 -140.4903 252.2523)" class="st65" width="5" height="5"/>
<rect x="231.6" y="310.9" transform="matrix(0.7073 -0.7069 0.7069 0.7073 -153.1203 257.4853)" class="st8" width="5.5" height="5.5"/>
<rect x="231.4" y="328.5" transform="matrix(0.7073 -0.7069 0.7069 0.7073 -165.7518 262.7275)" class="st0" width="6" height="6"/>
<rect x="231.1" y="346.1" transform="matrix(0.707 -0.7073 0.7073 0.707 -178.4181 268.1404)" class="st60" width="6.5" height="6.5"/>
<rect x="230.9" y="363.8" transform="matrix(0.7071 -0.7071 0.7071 0.7071 -191.0344 273.2874)" class="st37" width="7" height="7"/>
<rect x="230.6" y="381.4" transform="matrix(0.7071 -0.7071 0.7071 0.7071 -203.6662 278.5154)" class="st22" width="7.4" height="7.4"/>
<rect x="230.4" y="399" transform="matrix(0.7071 -0.7071 0.7071 0.7071 -216.2986 283.7483)" class="st12" width="7.9" height="7.9"/>
<rect x="230.2" y="416.6" transform="matrix(0.7072 -0.707 0.707 0.7072 -228.9103 288.9064)" class="st29" width="8.4" height="8.4"/>
<rect x="229.9" y="434.3" transform="matrix(0.7071 -0.7071 0.7071 0.7071 -241.5639 294.2135)" class="st69" width="8.9" height="8.9"/>
<rect x="251.2" y="187.5" transform="matrix(0.7071 -0.7071 0.7071 0.7071 -59.4728 233.589)" class="st69" width="2.2" height="2.2"/>
<rect x="250.9" y="205.1" transform="matrix(0.7071 -0.7071 0.7071 0.7071 -72.1055 238.8213)" class="st0" width="2.6" height="2.6"/>
<rect x="250.7" y="222.8" transform="matrix(0.7073 -0.7069 0.7069 0.7073 -84.7429 243.9702)" class="st0" width="3.1" height="3.1"/>
<rect x="250.4" y="240.4" transform="matrix(0.7072 -0.707 0.707 0.7072 -97.3723 249.2179)" class="st1" width="3.6" height="3.6"/>
<rect x="250.2" y="258" transform="matrix(0.7069 -0.7073 0.7073 0.7069 -110.0056 254.6389)" class="st57" width="4.1" height="4.1"/>
<rect x="249.9" y="275.6" transform="matrix(0.7071 -0.7071 0.7071 0.7071 -122.6366 259.7523)" class="st0" width="4.6" height="4.6"/>
<rect x="249.7" y="293.3" transform="matrix(0.7073 -0.7069 0.7069 0.7073 -135.2606 264.8765)" class="st74" width="5" height="5"/>
<rect x="249.5" y="310.9" transform="matrix(0.7073 -0.7069 0.7069 0.7073 -147.8907 270.115)" class="st0" width="5.5" height="5.5"/>
<rect x="249.2" y="328.5" transform="matrix(0.7073 -0.7069 0.7069 0.7073 -160.5214 275.3525)" class="st54" width="6" height="6"/>
<rect x="249" y="346.1" transform="matrix(0.707 -0.7073 0.7073 0.707 -173.182 280.7712)" class="st75" width="6.5" height="6.5"/>
<rect x="248.8" y="363.8" transform="matrix(0.7071 -0.7071 0.7071 0.7071 -185.8008 285.9158)" class="st0" width="7" height="7"/>
<rect x="248.5" y="381.4" transform="matrix(0.7071 -0.7071 0.7071 0.7071 -198.4335 291.148)" class="st0" width="7.4" height="7.4"/>
<rect x="248.3" y="399" transform="matrix(0.7071 -0.7071 0.7071 0.7071 -211.0651 296.3768)" class="st78" width="7.9" height="7.9"/>
<rect x="248" y="416.6" transform="matrix(0.7071 -0.7071 0.7071 0.7071 -223.6987 301.6137)" class="st4" width="8.4" height="8.4"/>
<rect x="247.8" y="434.3" transform="matrix(0.7071 -0.7071 0.7071 0.7071 -236.3313 306.8462)" class="st49" width="8.9" height="8.9"/>
<rect x="269" y="187.5" transform="matrix(0.7071 -0.7071 0.7071 0.7071 -54.2383 246.2322)" class="st0" width="2.2" height="2.2"/>
<rect x="268.8" y="205.1" transform="matrix(0.7071 -0.7071 0.7071 0.7071 -66.8728 251.4542)" class="st17" width="2.6" height="2.6"/>
<rect x="268.5" y="222.8" transform="matrix(0.7073 -0.7069 0.7069 0.7073 -79.5127 256.6076)" class="st23" width="3.1" height="3.1"/>
<rect x="268.3" y="240.4" transform="matrix(0.707 -0.7072 0.7072 0.707 -92.1343 261.9906)" class="st0" width="3.6" height="3.6"/>
<rect x="268.1" y="258" transform="matrix(0.7069 -0.7073 0.7073 0.7069 -104.7689 267.2757)" class="st81" width="4.1" height="4.1"/>
<rect x="267.8" y="275.6" transform="matrix(0.7071 -0.7071 0.7071 0.7071 -117.404 272.3849)" class="st17" width="4.6" height="4.6"/>
<rect x="267.6" y="293.3" transform="matrix(0.7073 -0.7069 0.7069 0.7073 -130.0318 277.5109)" class="st60" width="5" height="5"/>
<rect x="267.3" y="310.9" transform="matrix(0.7073 -0.7069 0.7069 0.7073 -142.6614 282.7444)" class="st0" width="5.5" height="5.5"/>
<rect x="267.1" y="328.5" transform="matrix(0.7071 -0.7071 0.7071 0.7071 -155.3019 288.0827)" class="st0" width="6" height="6"/>
<rect x="266.9" y="346.1" transform="matrix(0.707 -0.7073 0.7073 0.707 -167.9474 293.4112)" class="st31" width="6.5" height="6.5"/>
<rect x="266.6" y="363.8" transform="matrix(0.7071 -0.7071 0.7071 0.7071 -180.5682 298.5484)" class="st0" width="7" height="7"/>
<rect x="266.4" y="381.4" transform="matrix(0.7071 -0.7071 0.7071 0.7071 -193.2009 303.7813)" class="st44" width="7.4" height="7.4"/>
<rect x="266.1" y="399" transform="matrix(0.7071 -0.7071 0.7071 0.7071 -205.8326 309.0093)" class="st0" width="7.9" height="7.9"/>
<rect x="265.9" y="416.6" transform="matrix(0.7071 -0.7071 0.7071 0.7071 -218.4669 314.2502)" class="st0" width="8.4" height="8.4"/>
<rect x="265.7" y="434.3" transform="matrix(0.7071 -0.7071 0.7071 0.7071 -231.0985 319.4792)" class="st79" width="8.9" height="8.9"/>
<rect x="286.9" y="187.5" transform="matrix(0.7071 -0.7071 0.7071 0.7071 -49.0051 258.8656)" class="st0" width="2.2" height="2.2"/>
<rect x="286.6" y="205.1" transform="matrix(0.7071 -0.7071 0.7071 0.7071 -61.6386 264.0962)" class="st0" width="2.6" height="2.6"/>
<rect x="286.4" y="222.8" transform="matrix(0.7073 -0.7069 0.7069 0.7073 -74.283 269.2374)" class="st0" width="3.1" height="3.1"/>
<rect x="286.2" y="240.4" transform="matrix(0.707 -0.7072 0.7072 0.707 -86.899 274.6266)" class="st61" width="3.6" height="3.6"/>
<rect x="285.9" y="258" transform="matrix(0.7069 -0.7074 0.7074 0.7069 -99.5316 279.9195)" class="st0" width="4.1" height="4.1"/>
<rect x="285.7" y="275.6" transform="matrix(0.7071 -0.7071 0.7071 0.7071 -112.1714 285.0175)" class="st35" width="4.6" height="4.6"/>
<rect x="285.4" y="293.3" transform="matrix(0.7073 -0.7069 0.7069 0.7073 -124.8026 290.1401)" class="st24" width="5" height="5"/>
<rect x="285.2" y="310.9" transform="matrix(0.7071 -0.7071 0.7071 0.7071 -137.4365 295.4831)" class="st0" width="5.5" height="5.5"/>
<rect x="285" y="328.5" transform="matrix(0.7071 -0.7071 0.7071 0.7071 -150.0696 300.7205)" class="st72" width="6" height="6"/>
<rect x="284.7" y="346.1" transform="matrix(0.707 -0.7073 0.7073 0.707 -162.7121 306.0466)" class="st34" width="6.5" height="6.5"/>
<rect x="284.5" y="363.8" transform="matrix(0.7071 -0.7071 0.7071 0.7071 -175.3362 311.1857)" class="st68" width="7" height="7"/>
<rect x="284.2" y="381.4" transform="matrix(0.7071 -0.7071 0.7071 0.7071 -187.9682 316.4136)" class="st6" width="7.4" height="7.4"/>
<rect x="284" y="399" transform="matrix(0.707 -0.7072 0.7072 0.707 -200.6145 321.7294)" class="st81" width="7.9" height="7.9"/>
<rect x="283.8" y="416.6" transform="matrix(0.7071 -0.7071 0.7071 0.7071 -213.2341 326.8832)" class="st55" width="8.4" height="8.4"/>
<rect x="283.5" y="434.3" transform="matrix(0.7071 -0.7071 0.7071 0.7071 -225.866 332.1118)" class="st47" width="8.9" height="8.9"/>
<rect x="304.7" y="187.5" transform="matrix(0.7071 -0.7071 0.7071 0.7071 -43.775 271.4869)" class="st0" width="2.2" height="2.2"/>
<rect x="304.5" y="205.1" transform="matrix(0.7071 -0.7071 0.7071 0.7071 -56.4074 276.7202)" class="st0" width="2.6" height="2.6"/>
<rect x="304.3" y="222.8" transform="matrix(0.707 -0.7073 0.7073 0.707 -69.0283 282.0289)" class="st0" width="3.1" height="3.1"/>
<rect x="304" y="240.4" transform="matrix(0.707 -0.7072 0.7072 0.707 -81.6641 287.2609)" class="st0" width="3.6" height="3.6"/>
<rect x="303.8" y="258" transform="matrix(0.7069 -0.7073 0.7073 0.7069 -94.2952 292.5496)" class="st9" width="4.1" height="4.1"/>
<rect x="303.5" y="275.6" transform="matrix(0.7071 -0.7071 0.7071 0.7071 -106.9388 297.6502)" class="st0" width="4.6" height="4.6"/>
<rect x="303.3" y="293.3" transform="matrix(0.7073 -0.7069 0.7069 0.7073 -119.5734 302.7634)" class="st50" width="5" height="5"/>
<rect x="303.1" y="310.9" transform="matrix(0.7071 -0.7071 0.7071 0.7071 -132.2038 308.1101)" class="st20" width="5.5" height="5.5"/>
<rect x="302.8" y="328.5" transform="matrix(0.7071 -0.7071 0.7071 0.7071 -144.8365 313.3488)" class="st77" width="6" height="6"/>
<rect x="302.6" y="346.1" transform="matrix(0.707 -0.7073 0.7073 0.707 -157.4763 318.6769)" class="st4" width="6.5" height="6.5"/>
<rect x="302.3" y="363.8" transform="matrix(0.7071 -0.7071 0.7071 0.7071 -170.103 323.8137)" class="st27" width="7" height="7"/>
<rect x="302.1" y="381.4" transform="matrix(0.7071 -0.7071 0.7071 0.7071 -182.7356 329.0463)" class="st81" width="7.4" height="7.4"/>
<rect x="301.9" y="399" transform="matrix(0.707 -0.7072 0.7072 0.707 -195.3797 334.3642)" class="st0" width="7.9" height="7.9"/>
<rect x="301.6" y="416.6" transform="matrix(0.7071 -0.7071 0.7071 0.7071 -208.0008 339.5113)" class="st21" width="8.4" height="8.4"/>
<rect x="301.4" y="434.3" transform="matrix(0.7071 -0.7071 0.7071 0.7071 -220.6333 344.7444)" class="st0" width="8.9" height="8.9"/>
<rect x="322.6" y="187.5" transform="matrix(0.7071 -0.7071 0.7071 0.7071 -38.5392 284.1314)" class="st68" width="2.2" height="2.2"/>
<rect x="322.4" y="205.1" transform="matrix(0.7067 -0.7075 0.7075 0.7067 -51.1304 289.5533)" class="st0" width="2.6" height="2.6"/>
<rect x="322.1" y="222.8" transform="matrix(0.7073 -0.7069 0.7069 0.7073 -63.8247 294.4892)" class="st25" width="3.1" height="3.1"/>
<rect x="321.9" y="240.4" transform="matrix(0.707 -0.7072 0.7072 0.707 -76.4289 299.8963)" class="st76" width="3.6" height="3.6"/>
<rect x="321.7" y="258" transform="matrix(0.7069 -0.7073 0.7073 0.7069 -89.0584 305.1864)" class="st32" width="4.1" height="4.1"/>
<rect x="321.4" y="275.6" transform="matrix(0.7071 -0.7071 0.7071 0.7071 -101.7062 310.2828)" class="st19" width="4.6" height="4.6"/>
<rect x="321.2" y="293.3" transform="matrix(0.7071 -0.7071 0.7071 0.7071 -114.3387 315.5158)" class="st13" width="5" height="5"/>
<rect x="320.9" y="310.9" transform="matrix(0.7071 -0.7071 0.7071 0.7071 -126.9713 320.7484)" class="st28" width="5.5" height="5.5"/>
<rect x="320.7" y="328.5" transform="matrix(0.7071 -0.7071 0.7071 0.7071 -139.6039 325.981)" class="st57" width="6" height="6"/>
<rect x="320.5" y="346.1" transform="matrix(0.7071 -0.7071 0.7071 0.7071 -152.2369 331.2146)" class="st19" width="6.5" height="6.5"/>
<rect x="320.2" y="363.8" transform="matrix(0.7071 -0.7071 0.7071 0.7071 -164.8704 336.4463)" class="st0" width="7" height="7"/>
<rect x="320" y="381.4" transform="matrix(0.707 -0.7072 0.7072 0.707 -177.5107 341.7697)" class="st3" width="7.4" height="7.4"/>
<rect x="319.7" y="399" transform="matrix(0.707 -0.7072 0.7072 0.707 -190.145 346.999)" class="st69" width="7.9" height="7.9"/>
<rect x="319.5" y="416.6" transform="matrix(0.7071 -0.7071 0.7071 0.7071 -202.7688 352.1487)" class="st74" width="8.4" height="8.4"/>
<rect x="319.3" y="434.3" transform="matrix(0.7071 -0.7071 0.7071 0.7071 -215.4007 357.377)" class="st17" width="8.9" height="8.9"/>
<path class="st82" d="M3,188.6v223.6c0,11.6,9.5,21.1,21.1,21.1h277.6c11.6,0,21.1-9.5,21.1-21.1V188.6H3z"/>
</svg>
