
<svg xmlns="http://www.w3.org/2000/svg" viewBox="0 0 1920 87.9">
  <path d="M1919.9 36.1v51.8H.1v-.8c10-4 19-10 28.8-14.5 24.7-11.5 50.2-20.4 76.4-27.4 27.3-7.3 54.9-12.2 83-15.3 18.8-2.1 37.7-2.9 56.5-3.6 23.3-.9 46.4 1.2 69.6 2.7 20.3 1.3 40.5 4 60.7 6.4 22.5 2.6 44.9 6.4 67.3 9.9 29.1 4.5 58.2 9.2 87.3 14 22.7 3.8 45.5 6.7 68.3 10 25.7 3.7 51.6 6.2 77.4 8.7 20.9 2 42 3.4 63 4 16.6.5 33.3.7 49.9 1.2 12.5.4 24.9-1.6 37.4-1 11.1.5 22.2-1 33.4-1.3 6.4-.2 12.9-.4 19.4-.8 17.4-1.3 34.7-2.6 52-3.9 9.8-.7 19.5-1.3 29.3-2.2 13.5-1.2 27-2.6 40.5-3.8 8.6-.8 17.2-1.4 25.7-2.2 12.5-1.2 25-2.5 37.5-3.8 10.9-1.1 21.8-2.1 32.6-3.3 14.5-1.5 28.9-3.2 43.4-4.7 10.2-1.1 20.4-2.1 30.6-3.3 14-1.5 28-3.2 41.9-4.7 10.2-1.2 20.4-2.3 30.6-3.4l30.6-3.6 32.1-3.6c12.7-1.4 25.3-2.9 38-4.3 10.4-1.2 20.7-2.2 31.1-3.3 13.5-1.5 26.9-3.1 40.4-4.7 10.2-1.2 20.4-2.2 30.6-3.3 13.6-1.5 27.3-3.2 40.9-4.7 10.9-1.2 21.8-2.1 32.6-3.2 14.5-1.5 28.9-3.3 43.4-4.7 12.5-1.2 25.1-2 37.6-3.1 18-1.7 36.1-3.3 54.1-3.9h.6c.9 0 3.1-.1 6.1-.2 10.6-.3 31.7-.8 48.5 0 1.1.1 2.2.1 3.3.2h.1c13 .1 25.8 1.8 38.7 2.9 21.8 1.8 43.4 4.8 65 8.3 35.1 5.4 69.7 12.5 103.6 22.5z"/>
</svg>
