<svg version="1.1" id="Warstwa_1" xmlns="http://www.w3.org/2000/svg" x="0" y="0" viewBox="0 0 571.6 1113.2" xml:space="preserve">
  <style>
  </style>
  <linearGradient id="SVGID_1_" gradientUnits="userSpaceOnUse" x1="483.6501" y1="3324.438" x2="1602.5038" y2="3324.438" gradientTransform="scale(-1 1) rotate(-72.736 -1499.71059 2729.67624)">
    <stop offset="0" stop-color="#bbbce0" stop-opacity=".2"/>
    <stop offset="1" stop-color="#f5f2fa" stop-opacity=".4"/>
  </linearGradient>
  <path d="M-360 120.4c-7.5-24.1 3.6-50.2 26.3-61.3C-260.3 22.9-165.4-6.7-71.3 1.3c47.6 4 90.3 25.5 137.4 31.9 41.5 5.6 84.5-1.1 127-2.9 42.4-1.8 87.5 2.4 119 26.2 31.9 24.1 43.8 63.2 62 97.3 19 35.6 46.1 67.2 79.3 92.5 26.9 20.5 57.8 36.8 81.7 60.2 14.4 14.1 26 31.8 30.8 50.7 6.8 18.3 7.2 39.4 3.3 59.2-6.4 32.8-22.6 63.8-33.2 95.9-13 39.6-17.5 81-12.9 121.1 4.3 38.4 16.7 77.4 4.1 115.3-12.5 37.5-47.2 66.5-83.2 89.1-36 22.6-75.3 41.4-106.3 69.6-35.2 32-58.2 73.9-95.1 104.2-73 59.9-167.9 89.3-248.9 101.2-25 3.7-48.9-11.5-56.4-35.6L-360 120.4z" fill="url(#SVGID_1_)"/>
</svg>
