<?xml version="1.0" encoding="utf-8"?>
<!-- Generator: Adobe Illustrator 23.1.0, SVG Export Plug-In . SVG Version: 6.00 Build 0)  -->
<svg version="1.1" id="Warstwa_1" xmlns="http://www.w3.org/2000/svg" xmlns:xlink="http://www.w3.org/1999/xlink" x="0px" y="0px"
	 viewBox="0 0 106 399" style="enable-background:new 0 0 106 399;" xml:space="preserve">
<style type="text/css">
	.st0{fill:#F6C650;}
</style>
<path class="st0" d="M1.3,200.4c4.1-27.2,12.4-53.1,24.6-77.6c17.6-35.4,35.6-70.7,53.4-106C82,11.4,84.7,6,85.9,0.1
	c6,0,12,0.1,18-0.1c1.7,0,2.3,0.3,2,2.1c-0.1,0.8,0,1.7,0,2.5c0,131.1,0,262.1,0,393.2c-5.9-8.4-11-17.3-17.5-25.3
	c-20.9-25.6-42-51-61.5-77.8c-11.5-15.8-19.1-33.3-23-52.5C2.7,236.1-0.7,213.6,1.3,200.4z"/>
<rect x="85.9" y="0.1" class="st0" width="20.1" height="143.3"/>
</svg>
