<?xml version="1.0" encoding="utf-8"?>
<!-- Generator: Adobe Illustrator 23.1.0, SVG Export Plug-In . SVG Version: 6.00 Build 0)  -->
<svg version="1.1" id="Warstwa_1" xmlns="http://www.w3.org/2000/svg" xmlns:xlink="http://www.w3.org/1999/xlink" x="0px" y="0px"
	 viewBox="0 0 140 459" style="enable-background:new 0 0 140 459;" xml:space="preserve">
<style type="text/css">
	.st0{fill:#F6C650;}
</style>
<path class="st0" d="M135.1,228.3c-1.1,3.8-2.4,8.2-3.7,12.2v0c-1.2,3.8-2.5,7.4-3.7,10.2c-9.8,22.3-20.4,44.1-32.1,65.4
	C86,333.6,79,352,73.7,371.1c-5.5,19.6-11.4,38.9-12.1,59.5c-0.3,9.5-1.7,18.9-2.6,28.3c-18.1,0-36.3-0.1-54.4,0.1
	C1,459,0,458.3,0,454.5C0.1,331,0.1,207.5,0.1,84C0.1,57.2,0.2,30.4,0,3.6c0-3,0.7-3.6,3.6-3.5c7.8,0.2,15.6,0.1,23.4,0.1
	c3,6.2,7.8,11,12,16.4c21.2,27.3,44.2,53.3,63.7,81.9c11.6,17.1,22.7,34.5,29,54.2c0,0.1,0.1,0.2,0.1,0.3c0.4,1.4,0.9,2.9,1.3,4.4
	c0,0,0,0.1,0,0.1c2.2,7.7,4.2,16.3,5.2,25.8C139.8,196.4,139.4,211.3,135.1,228.3z"/>
<path class="st0" d="M131.8,152.9c0.5,1.4,0.9,2.9,1.3,4.4C132.6,155.8,132.2,154.3,131.8,152.9z"/>
<path class="st0" d="M131.4,240.5c1.3-4.1,2.6-8.4,3.7-12.2C134.1,232.3,132.8,236.4,131.4,240.5L131.4,240.5z"/>
</svg>
