<svg xmlns="http://www.w3.org/2000/svg" viewBox="0 0 638.062 638.062">
  <path d="M303.4 319.03c.585-7.521-1.701-15.203-7.469-20.944L58.786 61.339c-10.472-10.445-27.43-10.445-37.902 0-10.473 10.446-10.473 27.378 0 37.85L241.098 319.03 20.884 538.872c-10.473 10.445-10.473 27.377 0 37.823 10.473 10.445 27.431 10.445 37.902 0l237.146-236.747c5.767-5.741 8.027-13.395 7.468-20.918zm314.121-20.944L326.765 7.834c-10.473-10.445-27.431-10.445-37.903 0-10.473 10.446-10.473 27.404 0 37.823L562.687 319.03 288.861 592.377c-10.473 10.446-10.473 27.377 0 37.85 10.473 10.446 27.431 10.446 37.903 0l290.729-290.251c5.768-5.741 8.027-13.423 7.442-20.945.613-7.522-1.673-15.204-7.414-20.945z"/>
</svg>
