<svg xmlns="http://www.w3.org/2000/svg" viewBox="0 0 638.922 638.922">
  <path d="M75.829 319.46L349.65 45.719c10.46-10.46 10.46-27.414 0-37.874-10.459-10.46-27.44-10.46-37.9 0L21.001 298.487c-5.749 5.749-8.038 13.441-7.452 20.973-.586 7.533 1.703 15.198 7.452 20.973l290.723 290.644c10.46 10.46 27.44 10.46 37.9 0s10.46-27.414 0-37.901L75.829 319.46zm321.57 0L617.617 99.323c10.46-10.46 10.46-27.415 0-37.901-10.46-10.46-27.44-10.46-37.9 0L342.571 298.487c-5.749 5.749-8.038 13.441-7.452 20.973-.586 7.533 1.703 15.198 7.452 20.973L579.717 577.5c10.46 10.459 27.44 10.459 37.9 0 10.46-10.46 10.46-27.415 0-37.875L397.399 319.46z"/>
</svg>
