<svg xmlns="http://www.w3.org/2000/svg" id="Capa_1" x="0" y="0" version="1.1" viewBox="0 0 512 512" xml:space="preserve">
  <path d="M147.6 515.9c-26.1 0-47.3-21.2-47.3-47.3v-34.2H65c-26.1 0-47.3-21.2-47.3-47.3v-338c0-26 21.2-47.2 47.3-47.2h382.1c12.6 0 24.5 4.9 33.4 13.9 8.9 9 13.8 20.8 13.8 33.5v338c0 26.1-21.2 47.3-47.3 47.3h-20.4v34.2c0 26.1-21.2 47.3-47.3 47.3H147.6zm-27-47.2c0 14.8 12.1 26.9 26.9 26.9h231.9c14.8 0 26.9-12.1 26.9-26.9v-34.2H120.6v34.2zM64.9 22.3C50.1 22.3 38 34.4 38 49.2v338.1c0 14.8 12.1 26.9 26.9 26.9H447c14.8 0 26.9-12.1 26.9-26.9V49.2c0-14.8-12.1-26.9-26.9-26.9H64.9z"/>
  <path d="M252.3 126.2c-10.8 0-19.5-8.8-19.5-19.5V58.4c0-10.8 8.8-19.5 19.5-19.5h185.5c10.8 0 19.5 8.8 19.5 19.5v48.2c0 10.8-8.8 19.5-19.5 19.5H252.3zm130.3-20.4h54.2V59.4H429l-46.4 46.4zm-70.5 0h41.7l46.4-46.4h-41.7l-46.4 46.4zm-58.9 0h30.1l46.4-46.4h-76.5v46.4zM263.4 211.5c-16.9 0-30.6-13.7-30.6-30.6 0-16.9 13.7-30.6 30.6-30.6S294 164 294 180.9c.1 16.8-13.7 30.6-30.6 30.6zm0-40.8c-5.6 0-10.2 4.6-10.2 10.2s4.6 10.2 10.2 10.2 10.2-4.6 10.2-10.2-4.6-10.2-10.2-10.2zM345 211.6c-16.9 0-30.6-13.7-30.6-30.6 0-16.9 13.7-30.6 30.6-30.6 16.9 0 30.6 13.7 30.6 30.6 0 16.8-13.7 30.6-30.6 30.6zm.1-40.9c-5.6 0-10.2 4.6-10.2 10.2s4.6 10.2 10.2 10.2 10.2-4.6 10.2-10.2-4.6-10.2-10.2-10.2zM426.6 211.6c-16.9 0-30.6-13.7-30.6-30.6 0-16.9 13.7-30.6 30.6-30.6 16.9 0 30.6 13.7 30.6 30.6.1 16.8-13.7 30.6-30.6 30.6zm.1-40.9c-5.6 0-10.2 4.6-10.2 10.2s4.6 10.2 10.2 10.2 10.2-4.6 10.2-10.2-4.6-10.2-10.2-10.2zM263.4 293.5c-16.9 0-30.6-13.7-30.6-30.6 0-16.9 13.7-30.6 30.6-30.6S294 246 294 262.9c.1 16.8-13.7 30.6-30.6 30.6zm0-40.9c-5.6 0-10.2 4.6-10.2 10.2s4.6 10.2 10.2 10.2 10.2-4.6 10.2-10.2-4.6-10.2-10.2-10.2zM345 293.5c-16.9 0-30.6-13.7-30.6-30.6s13.7-30.6 30.6-30.6c16.9 0 30.6 13.7 30.6 30.6s-13.7 30.6-30.6 30.6zm.1-40.9c-5.6 0-10.2 4.6-10.2 10.2s4.6 10.2 10.2 10.2 10.2-4.6 10.2-10.2-4.6-10.2-10.2-10.2zM426.6 293.5c-16.9 0-30.6-13.7-30.6-30.6s13.7-30.6 30.6-30.6c16.9 0 30.6 13.7 30.6 30.6s-13.7 30.6-30.6 30.6zm.1-40.9c-5.6 0-10.2 4.6-10.2 10.2s4.6 10.2 10.2 10.2 10.2-4.6 10.2-10.2-4.6-10.2-10.2-10.2zM263.4 373.4c-16.9 0-30.6-13.7-30.6-30.6 0-16.8 13.7-30.6 30.6-30.6s30.6 13.7 30.6 30.6c.1 16.8-13.7 30.6-30.6 30.6zm0-40.9c-5.6 0-10.2 4.6-10.2 10.2s4.5 10.2 10 10.2h.2c5.6 0 10.2-4.6 10.2-10.2s-4.6-10.2-10.2-10.2zM345 373.4c-16.9 0-30.6-13.7-30.6-30.6 0-16.8 13.7-30.6 30.6-30.6 16.9 0 30.6 13.7 30.6 30.6 0 16.8-13.7 30.6-30.6 30.6zm.1-40.9c-5.6 0-10.2 4.6-10.2 10.2s4.6 10.2 10.2 10.2 10.2-4.6 10.2-10.2-4.6-10.2-10.2-10.2zM426.6 373.4c-16.9 0-30.6-13.7-30.6-30.6 0-16.8 13.7-30.6 30.6-30.6 16.9 0 30.6 13.7 30.6 30.6.1 16.8-13.7 30.6-30.6 30.6zm.1-40.9c-5.6 0-10.2 4.6-10.2 10.2s4.6 10.2 10.2 10.2 10.2-4.6 10.2-10.2-4.6-10.2-10.2-10.2zM114.6 397.5c-16 0-31-6.2-42.3-17.6-11.3-11.3-17.5-26.3-17.4-42.3V98.8c0-33 26.8-59.8 59.8-59.8h41.7c33 0 59.8 26.8 59.8 59.8v74.7c0 5.6-4.6 10.2-10.2 10.2s-10.2-4.6-10.2-10.2V98.8c0-21.7-17.7-39.4-39.4-39.4h-41.7c-21.7 0-39.4 17.7-39.4 39.4v238.9c0 21.7 17.7 39.4 39.4 39.4h41.7c21.7 0 39.4-17.7 39.4-39.4V261c0-5.6 4.6-10.2 10.2-10.2s10.2 4.6 10.2 10.2v76.7c0 33-26.8 59.8-59.8 59.8h-41.8z"/>
  <path d="M205.9 225.4c-2.7 0-5.4-1.1-7.2-3s-3-4.5-3-7.2 1.1-5.4 3-7.2c1.9-1.9 4.5-3 7.2-3s5.4 1.1 7.2 3 3 4.5 3 7.2-1.1 5.4-3 7.2c-1.8 2-4.5 3-7.2 3z"/>
</svg>
