<svg xmlns="http://www.w3.org/2000/svg" viewBox="0 0 490.617 490.617">
  <path d="M245.255 0c-88.213 0-160 77.44-160 172.48 0 91.627 145.067 304.533 151.253 313.493 3.307 4.907 9.92 6.08 14.827 2.773 1.067-.747 2.027-1.707 2.773-2.773 6.187-8.96 151.253-221.867 151.253-313.493C405.255 77.44 333.468 0 245.255 0zm0 460.8c-31.787-48.107-138.667-215.467-138.667-288.32 0-83.307 62.187-151.147 138.667-151.147s138.667 67.84 138.667 151.147c0 72.853-106.88 240.213-138.667 288.32z"/>
  <path d="M245.255 74.667c-47.147 0-85.333 38.187-85.333 85.333s38.187 85.333 85.333 85.333 85.333-38.187 85.333-85.333-38.186-85.333-85.333-85.333zm0 149.333c-35.307 0-64-28.693-64-64s28.693-64 64-64 64 28.693 64 64-28.693 64-64 64z"/>
</svg>
