<svg version="1.1" id="Capa_1" xmlns="http://www.w3.org/2000/svg" x="0" y="0" viewBox="0 0 512 512" xml:space="preserve"><style></style><path d="M62.6 446.7c-32.3 0-58.5-26.2-58.5-58.5V123.8c0-32.3 26.2-58.5 58.5-58.5h386.9c15.6 0 30.3 6.1 41.3 17.2 11.1 11.1 17.1 25.8 17.1 41.4v264.3c0 32.3-26.2 58.5-58.5 58.5H62.6zm0-360.9c-21 0-38.1 17.1-38.1 38.1v264.3c0 21 17.1 38.1 38.1 38.1h386.9c21 0 38.1-17.1 38.1-38.1v-4.1h-.1V123.9c0-21-17.1-38.1-38.1-38.1H62.6z"/><path d="M438.8 392.7c-2.7 0-5.1-1-7-2.8L301.7 266.3l-38.5 34.5c-1.9 1.7-4.3 2.7-6.8 2.7-2.6 0-4.9-.9-6.8-2.6L212 267.4 81.2 389.8c-1.9 1.7-4.4 2.7-6.9 2.7-2.8 0-5.5-1.2-7.5-3.3-3.8-4.1-3.6-10.5.5-14.4l129.4-121.2L66.6 137.4c-2.1-1.8-3.3-4.3-3.4-7.1-.2-2.7.8-5.3 2.6-7.4 2-2.2 4.7-3.4 7.6-3.4 2.5 0 4.9.9 6.8 2.6l137.2 122.8.1.1c.6.4 1.1.8 1.5 1.3.2.2.3.4.6.7l.1.1 36.5 32.6 175.4-157.4c1.9-1.7 4.3-2.6 6.8-2.6 2.9 0 5.7 1.2 7.6 3.4 3.7 4.2 3.4 10.6-.8 14.4L316.8 252.6l129 122.5c4.1 3.9 4.2 10.3.4 14.4-2 2-4.6 3.2-7.4 3.2z"/></svg>