<svg xmlns="http://www.w3.org/2000/svg" viewBox="0 0 64 64">
  <g fill="#1D1D1B">
    <path d="M2.252 10.271h58.871c1.124 0 2.034-.91 2.034-2.034 0-1.123-.91-2.034-2.034-2.034H2.252c-1.124 0-2.034.911-2.034 2.034 0 1.123.91 2.034 2.034 2.034zM61.123 30.015H2.252c-1.124 0-2.034.912-2.034 2.035 0 1.122.91 2.034 2.034 2.034h58.871c1.124 0 2.034-.912 2.034-2.034 0-1.123-.91-2.035-2.034-2.035zM61.123 53.876H2.252c-1.124 0-2.034.91-2.034 2.034 0 1.123.91 2.034 2.034 2.034h58.871c1.124 0 2.034-.911 2.034-2.034 0-1.124-.91-2.034-2.034-2.034z"/>
  </g>
</svg>