<?xml version="1.0" encoding="utf-8"?>
<svg version="1.1" xmlns="http://www.w3.org/2000/svg" xmlns:xlink="http://www.w3.org/1999/xlink" x="0px" y="0px"
	 viewBox="0 0 512 512">
<g>
	<path d="M256,512c-68.4,0-132.7-26.6-181-75C26.6,388.7,0,324.4,0,256S26.6,123.3,75,75C123.3,26.6,187.6,0,256,0
		c68.4,0,132.7,26.6,181,75c48.4,48.4,75,112.6,75,181s-26.6,132.7-75,181C388.7,485.4,324.4,512,256,512z M256,296.1
		c-78.2,0-144,58.5-153,136.1l-0.3,2.8l2.2,1.8c42.3,35.5,96,55,151.2,55c55.2,0,108.8-19.5,151.2-55l2.2-1.8l-0.3-2.8
		c-4-34.2-19.6-66.5-44.1-91C335.8,312.1,297.1,296.1,256,296.1z M256,85.7c57.8,0,104.7,47,104.7,104.7c0,34.7-17.2,67.2-46.1,86.7
		l-8.4,5.7l9.6,3.5c23.9,8.7,45.2,22.4,63.4,40.6c22.4,22.4,38.3,50.5,45.9,81.2l2.4,9.7l6.6-7.6c37.2-42.9,57.7-97.7,57.7-154.4
		C491.8,126,386,20.2,256,20.2S20.2,126,20.2,256c0,56.7,20.5,111.5,57.7,154.3l6.6,7.6l2.4-9.7c8.1-32.8,25.5-62.4,50.4-85.5
		c17.2-16,37-28.2,59-36.2l9.6-3.5l-8.4-5.7c-28.9-19.6-46.1-52-46.1-86.8C151.3,132.7,198.2,85.7,256,85.7z M256,105.9
		c-46.6,0-84.5,37.9-84.5,84.5S209.4,275,256,275s84.5-37.9,84.5-84.5S302.6,105.9,256,105.9z"/>
</g>
</svg>
